<svg width="20" height="20" viewBox="0 0 20 20" fill="none" xmlns="http://www.w3.org/2000/svg">
<path fill-rule="evenodd" clip-rule="evenodd" d="M18.4727 7.78157H17.3027C17.1541 7.30823 16.9581 6.85116 16.7169 6.41543L17.8336 5.30608C17.9329 5.20736 17.9889 5.0732 17.9893 4.93314C17.9896 4.79312 17.9342 4.65864 17.8352 4.5595L15.4492 2.16793C15.2439 1.96205 14.9106 1.96135 14.7043 2.16631L13.5278 3.33519C13.1073 3.11967 12.6679 2.94362 12.2145 2.8089V1.52734C12.2145 1.23611 11.9784 1 11.6872 1H8.31278C8.02155 1 7.78544 1.23611 7.78544 1.52734V2.8089C7.33206 2.94362 6.89279 3.11967 6.47228 3.33519L5.29585 2.16631C5.08951 1.96131 4.75623 1.96205 4.55085 2.16793L2.16473 4.55947C2.0658 4.6586 2.01039 4.79308 2.01071 4.9331C2.01102 5.07316 2.06702 5.20736 2.16642 5.30605L3.28312 6.4154C3.04191 6.85113 2.84592 7.30826 2.69735 7.78153H1.52734C1.23611 7.78153 1 8.01764 1 8.30888V11.6911C1 11.9823 1.23611 12.2185 1.52734 12.2185H2.69735C2.84592 12.6917 3.04191 13.1488 3.28312 13.5845L2.16642 14.6939C2.06702 14.7926 2.01102 14.9268 2.01071 15.0668C2.01039 15.2069 2.0658 15.3413 2.16473 15.4405L4.55081 17.832C4.7562 18.0379 5.08951 18.0386 5.29581 17.8337L6.47224 16.6648C6.89275 16.8802 7.33206 17.0563 7.78541 17.191V18.4727C7.78541 18.7639 8.02151 19 8.31274 19H11.6871C11.9784 19 12.2145 18.7639 12.2145 18.4727V17.1911C12.6679 17.0563 13.1072 16.8803 13.5277 16.6648L14.7042 17.8337C14.9105 18.0387 15.2438 18.0379 15.4491 17.8321L17.8352 15.4405C17.9342 15.3414 17.9896 15.2069 17.9893 15.0668C17.9889 14.9268 17.9329 14.7926 17.8335 14.6939L16.7168 13.5846C16.958 13.1488 17.1541 12.6918 17.3026 12.2185H18.4727C18.7639 12.2185 19 11.9823 19 11.6911V8.30892C19 8.01768 18.7639 7.78157 18.4727 7.78157ZM17.9453 11.1637H16.9042C16.6628 11.1637 16.4523 11.3276 16.393 11.5616C16.2296 12.2067 15.9655 12.8214 15.6081 13.3885C15.4765 13.5973 15.5074 13.8697 15.6826 14.0437L16.7153 15.0697L15.0742 16.7146L13.992 15.6394C13.8228 15.4712 13.5616 15.4376 13.3553 15.5576C12.7967 15.8824 12.1943 16.1233 11.5647 16.2736C11.3273 16.3303 11.1598 16.5425 11.1598 16.7865V17.9453H8.8401V16.7865C8.8401 16.5425 8.6726 16.3303 8.43523 16.2736C7.80569 16.1233 7.20329 15.8823 6.64472 15.5575C6.43839 15.4376 6.17721 15.4711 6.00794 15.6393L4.92576 16.7146L3.28463 15.0697L4.31738 14.0437C4.49256 13.8697 4.52354 13.5973 4.39187 13.3884C4.03448 12.8213 3.77038 12.2067 3.60698 11.5615C3.5477 11.3276 3.33715 11.1637 3.09577 11.1637H2.05469V8.83626H3.0958C3.33719 8.83626 3.54774 8.67236 3.60701 8.43839C3.77038 7.79328 4.03448 7.17864 4.39191 6.61154C4.5236 6.4026 4.49263 6.13028 4.31742 5.95622L3.28463 4.93026L4.92576 3.28537L6.00794 4.36058C6.17725 4.52877 6.43836 4.56235 6.64472 4.44236C7.20329 4.11758 7.80569 3.87666 8.43523 3.72633C8.6726 3.66966 8.8401 3.45749 8.8401 3.21341V2.05469H11.1598V3.21344C11.1598 3.45749 11.3273 3.6697 11.5647 3.72637C12.1943 3.8767 12.7967 4.11762 13.3553 4.4424C13.5615 4.56235 13.8227 4.52885 13.992 4.36062L15.0742 3.28541L16.7153 4.93029L15.6826 5.95626C15.5074 6.13028 15.4765 6.4026 15.6081 6.61157C15.9655 7.17864 16.2296 7.79328 16.393 8.43843C16.4523 8.6724 16.6628 8.83626 16.9042 8.83626H17.9453V11.1637ZM10.5804 9.37063C10.221 9.24361 9.82451 9.09092 9.60945 8.92235C9.57862 8.89817 9.55757 8.81497 9.57588 8.71776C9.5855 8.66686 9.6298 8.49687 9.7965 8.4466C10.1241 8.34791 10.3453 8.47613 10.4252 8.53583C10.6585 8.71013 10.989 8.66239 11.1634 8.42909C11.3377 8.1958 11.2899 7.86537 11.0567 7.69098C10.9735 7.62894 10.7777 7.50009 10.4979 7.42162V7.34895C10.4979 7.05772 10.2618 6.82161 9.97055 6.82161C9.67926 6.82161 9.44315 7.05772 9.44315 7.34895V7.45347C8.97883 7.61337 8.6345 8.01794 8.53944 8.52244C8.44821 9.00664 8.6088 9.47784 8.95856 9.75215C9.29265 10.0142 9.76652 10.2016 10.2289 10.365C10.5278 10.4707 10.5581 10.686 10.5309 10.8481C10.4923 11.0773 10.2995 11.325 9.96703 11.3273C9.59122 11.3297 9.493 11.3144 9.21416 11.132C8.97045 10.9725 8.6436 11.0409 8.48417 11.2846C8.32474 11.5284 8.39305 11.8552 8.63679 12.0146C8.94345 12.2153 9.178 12.3097 9.44315 12.3517V12.4323C9.44315 12.7235 9.67926 12.9596 9.97047 12.9596C10.2617 12.9596 10.4978 12.7235 10.4978 12.4323V12.2946C11.0982 12.0893 11.4819 11.5527 11.571 11.0229C11.6946 10.2878 11.2965 9.6238 10.5804 9.37063ZM4.88855 10.0569C4.88855 7.19896 7.19536 4.87387 10.0308 4.87387C12.8663 4.87387 15.1731 7.19896 15.1731 10.0569C15.1731 12.9148 12.8663 15.24 10.0308 15.24C7.19536 15.24 4.88855 12.9148 4.88855 10.0569ZM5.94324 10.0568C5.94324 12.3332 7.77692 14.1852 10.0308 14.1852C12.2847 14.1852 14.1184 12.3332 14.1184 10.0568C14.1184 7.78049 12.2847 5.92852 10.0308 5.92852C7.77692 5.92852 5.94324 7.78049 5.94324 10.0568Z" fill="#333333"/>
</svg>
