<svg width="20" height="20" viewBox="0 0 20 20" fill="none" xmlns="http://www.w3.org/2000/svg">
<path fill-rule="evenodd" clip-rule="evenodd" d="M11.6875 6.25C11.1719 6.25 10.75 5.82812 10.75 5.3125V0H2.9375C2.41973 0 2 0.419727 2 0.9375V19.0625C2 19.5803 2.41973 20 2.9375 20H16.0625C16.5803 20 17 19.5803 17 19.0625V6.25H11.6875ZM17 4.76332V5H12V0H12.2367C12.4853 0 12.7238 0.0987891 12.8996 0.27457L16.7254 4.10039C16.9012 4.27623 17 4.51468 17 4.76332ZM6.66564 15.7113C6.72156 15.7095 6.77447 15.6855 6.81273 15.6447L7.57754 14.8289C7.61659 14.7873 7.63708 14.7316 7.63435 14.6746C7.63161 14.6175 7.60587 14.564 7.56301 14.5263L5.9707 13.125L7.56301 11.7237C7.60587 11.686 7.63161 11.6325 7.63435 11.5754C7.63708 11.5184 7.61659 11.4627 7.57754 11.4211L6.81273 10.6052C6.77447 10.5644 6.72156 10.5405 6.66564 10.5387C6.60973 10.5369 6.55538 10.5574 6.51457 10.5956L3.98074 12.9711C3.93821 13.011 3.91407 13.0667 3.91407 13.125C3.91407 13.1833 3.93821 13.239 3.98074 13.2789L6.51457 15.6543C6.55538 15.6926 6.60973 15.7131 6.66564 15.7113ZM8.81645 17.6166L7.74406 17.3052C7.63219 17.2727 7.56783 17.1557 7.60027 17.0438L10.0003 8.77719C10.0328 8.66532 10.1498 8.60095 10.2617 8.6334L11.334 8.94473C11.3878 8.96033 11.4331 8.99663 11.46 9.04566C11.487 9.09468 11.4934 9.15241 11.4778 9.20613L9.07777 17.4728C9.06221 17.5265 9.02592 17.5719 8.97691 17.5988C8.92789 17.6258 8.87017 17.6322 8.81645 17.6166ZM12.5636 15.6543L15.0974 13.2789C15.1399 13.239 15.1641 13.1833 15.1641 13.125C15.1641 13.0667 15.14 13.011 15.0974 12.9711L12.5636 10.5956C12.5228 10.5574 12.4684 10.5369 12.4125 10.5387C12.3566 10.5405 12.3037 10.5644 12.2654 10.6052L11.5006 11.4211C11.4615 11.4627 11.441 11.5184 11.4438 11.5754C11.4465 11.6325 11.4723 11.686 11.5151 11.7237L13.1074 13.125L11.5151 14.5263C11.4722 14.564 11.4465 14.6175 11.4437 14.6745C11.441 14.7315 11.4615 14.7873 11.5005 14.8289L12.2654 15.6447C12.3037 15.6855 12.3566 15.7095 12.4125 15.7113C12.4684 15.7131 12.5227 15.6926 12.5636 15.6543Z" fill="currentcolor"/>
</svg>
