<svg width="20" height="20" viewBox="0 0 20 20" fill="none" xmlns="http://www.w3.org/2000/svg">
<path fill-rule="evenodd" clip-rule="evenodd" d="M19.0625 4.75H0.9375C0.419727 4.75 0 4.33027 0 3.8125V1.9375C0 1.41973 0.419727 1 0.9375 1H19.0625C19.5803 1 20 1.41973 20 1.9375V3.8125C20 4.33027 19.5803 4.75 19.0625 4.75ZM18.75 17.5625V6.9375C18.75 6.41973 18.3303 6 17.8125 6H2.1875C1.66973 6 1.25 6.41973 1.25 6.9375V17.5625C1.25 18.0803 1.66973 18.5 2.1875 18.5H17.8125C18.3303 18.5 18.75 18.0803 18.75 17.5625ZM7.96875 9.75H12.0312C12.2901 9.75 12.5 9.54012 12.5 9.28125V8.96875C12.5 8.70988 12.2901 8.5 12.0312 8.5H7.96875C7.70988 8.5 7.5 8.70988 7.5 8.96875V9.28125C7.5 9.54012 7.70988 9.75 7.96875 9.75Z" fill="currentcolor"/>
</svg>
