<svg width="20" height="20" viewBox="0 0 20 20" fill="none" xmlns="http://www.w3.org/2000/svg">
<path d="M3.10981 10.772L2.26749 9.9297C1.91084 9.57304 1.91084 8.99632 2.26749 8.64346L9.63966 1.26749C9.99632 0.910836 10.573 0.910836 10.9259 1.26749L18.2981 8.63966C18.6547 8.99632 18.6547 9.57304 18.2981 9.9259L17.4558 10.7682C17.0953 11.1287 16.5072 11.1211 16.1543 10.753L11.8024 6.1848V17.0894C11.8024 17.594 11.3964 18 10.8918 18H9.6776C9.17297 18 8.76699 17.594 8.76699 17.0894V6.1848L4.41123 10.7568C4.05836 11.1287 3.47026 11.1363 3.10981 10.772Z" fill="currentcolor"/>
</svg>
