<svg width="20" height="20" viewBox="0 0 20 20" fill="none" xmlns="http://www.w3.org/2000/svg">
<path d="M8.65316 2.1218L9.54503 1.27038C9.92266 0.909872 10.5333 0.909872 10.9069 1.27038L18.7168 8.72223C19.0944 9.08274 19.0944 9.6657 18.7168 10.0224L10.9069 17.4781C10.5293 17.8386 9.91865 17.8386 9.54503 17.4781L8.65316 16.6266C8.27151 16.2623 8.27954 15.6678 8.66923 15.3112L13.5102 10.9083H1.96418C1.42986 10.9083 1 10.4979 1 9.98785V8.76058C1 8.2505 1.42986 7.84013 1.96418 7.84013H13.5102L8.66923 3.43729C8.27553 3.08061 8.26749 2.48615 8.65316 2.1218Z" fill="currentcolor"/>
</svg>
