<svg width="20" height="20" viewBox="0 0 20 20" fill="none" xmlns="http://www.w3.org/2000/svg">
<path d="M11.3468 16.6266L10.455 17.4781C10.0773 17.8386 9.46669 17.8386 9.09307 17.4781L1.28323 10.0262C0.905591 9.6657 0.905591 9.08274 1.28323 8.72607L9.09307 1.27038C9.47071 0.909872 10.0814 0.909872 10.455 1.27038L11.3468 2.1218C11.7285 2.48615 11.7205 3.08061 11.3308 3.43729L6.48979 7.84013H18.0358C18.5701 7.84013 19 8.2505 19 8.76058V9.98785C19 10.4979 18.5701 10.9083 18.0358 10.9083H6.48979L11.3308 15.3112C11.7245 15.6678 11.7325 16.2623 11.3468 16.6266Z" fill="currentcolor"/>
</svg>
