<svg width="20" height="20" viewBox="0 0 20 20" fill="none" xmlns="http://www.w3.org/2000/svg">
<path d="M13.7579 16.6319L10.6643 19.7254C10.2982 20.0916 9.70461 20.0916 9.33848 19.7254L6.24488 16.6319C5.65429 16.0413 6.07257 15.0314 6.90781 15.0315H8.90633L8.90629 11.0938H4.96863V13.0923C4.96863 13.9275 3.95882 14.3458 3.3682 13.7552L0.2746 10.6616C-0.0915333 10.2955 -0.0915333 9.7019 0.2746 9.33581L3.3682 6.24221C3.95878 5.65163 4.96863 6.06991 4.96863 6.90514V8.90627H8.90629V4.96862H6.90511C6.06988 4.96862 5.6516 3.95882 6.24218 3.36819L9.33578 0.274599C9.70191 -0.0915332 10.2955 -0.0915332 10.6616 0.274599L13.7552 3.36819C14.3458 3.95878 13.9275 4.96862 13.0923 4.96862H11.0938V8.90627H15.0314V6.90776C15.0314 6.07253 16.0412 5.65425 16.6318 6.24483L19.7254 9.33842C20.0915 9.70456 20.0915 10.2981 19.7254 10.6642L16.6318 13.7578C16.0412 14.3484 15.0314 13.9301 15.0314 13.0949V11.0938H11.0938V15.0314H13.095C13.9302 15.0314 14.3485 16.0412 13.7579 16.6319Z" fill="currentcolor"/>
</svg>
