<svg width="20" height="20" viewBox="0 0 20 20" fill="none" xmlns="http://www.w3.org/2000/svg">
<path d="M17.3668 9.18465L18.2041 10.0219C18.5586 10.3764 18.5586 10.9497 18.2041 11.3004L10.8761 18.6322C10.5216 18.9867 9.94837 18.9867 9.59762 18.6322L2.26589 11.3004C1.91137 10.9459 1.91137 10.3727 2.26589 10.0219L3.10315 9.18465C3.46144 8.82636 4.04602 8.8339 4.39677 9.19973L8.72641 13.7444V2.90515C8.72641 2.40355 9.12996 2 9.63156 2H10.8384C11.34 2 11.7436 2.40355 11.7436 2.90515V13.7444L16.0732 9.19973C16.424 8.83013 17.0086 8.82259 17.3668 9.18465Z" fill="currentcolor"/>
</svg>
