<svg width="20" height="20" viewBox="0 0 20 20" fill="none" xmlns="http://www.w3.org/2000/svg">
<path d="M18.5224 12.8135L13.0682 9.81835L18.5224 6.82326C18.9748 6.57485 19.1346 6.00312 18.8765 5.55619L18.1294 4.26212C17.8713 3.8152 17.2963 3.66769 16.855 3.93524L11.5341 7.16119L11.6674 0.940184C11.6784 0.424222 11.2632 0 10.7471 0H9.25288C8.73681 0 8.32156 0.424222 8.33264 0.940184L8.46588 7.16119L3.14499 3.93528C2.7037 3.66773 2.12867 3.81524 1.87063 4.26216L1.12352 5.55623C0.865479 6.00316 1.02526 6.57488 1.47763 6.8233L6.93176 9.81835L1.47759 12.8135C1.02522 13.0619 0.86544 13.6336 1.12352 14.0805L1.87063 15.3746C2.12867 15.8215 2.7037 15.969 3.14499 15.7015L8.46588 12.4755L8.33261 18.6965C8.32156 19.2125 8.73681 19.6367 9.25288 19.6367H10.7472C11.2632 19.6367 11.6785 19.2125 11.6674 18.6965L11.5341 12.4755L16.855 15.7014C17.2963 15.969 17.8713 15.8215 18.1294 15.3745L18.8765 14.0805C19.1345 13.6336 18.9748 13.0619 18.5224 12.8135Z" fill="currentcolor"/>
</svg>
