<svg width="20" height="20" viewBox="0 0 20 20" fill="none" xmlns="http://www.w3.org/2000/svg">
<path fill-rule="evenodd" clip-rule="evenodd" d="M14.6862 9.62923C15.8973 8.96179 16.6181 7.67917 16.6181 6.18376C16.6181 4.447 15.673 3.02875 14.1472 2.43275C13.2584 2.07237 12.3838 2 11.2609 2H4.57609C4.25791 2 4 2.25791 4 2.57609V3.76603C4 4.08421 4.25791 4.34212 4.57609 4.34212H5.76833V15.8109H4.57609C4.25791 15.8109 4 16.0688 4 16.387V17.5543C4 17.8725 4.25791 18.1304 4.57609 18.1304H11.622C12.4934 18.1304 13.2363 18.084 14.0295 17.8574C15.8645 17.3093 17.25 15.6334 17.25 13.4502C17.25 11.5719 16.2932 10.1491 14.6862 9.62923ZM8.83254 4.4775H11.2609C11.8476 4.4775 12.2523 4.55019 12.612 4.71935C13.1819 5.02464 13.5087 5.67356 13.5087 6.49967C13.5087 7.76091 12.7771 8.54442 11.5994 8.54442H8.83254V4.4775ZM11.7574 15.6529C12.0718 15.6529 12.5232 15.6223 12.8883 15.4763C13.6488 15.1594 14.1406 14.2932 14.1406 13.2697C14.1406 11.9131 13.2976 10.9993 11.8702 10.9993H8.83254V15.6529H11.7574Z" fill="currentcolor"/>
</svg>
