<svg width="20" height="20" viewBox="0 0 20 20" fill="none" xmlns="http://www.w3.org/2000/svg">
<path d="M17.7783 5.491C17.6523 4.996 17.1573 4.708 16.6623 4.816C14.5203 5.293 12.1353 5.5 9.90335 5.5C7.67137 5.5 5.28637 5.293 3.14437 4.816C2.64937 4.708 2.15437 4.996 2.02837 5.491C1.90237 5.995 2.20837 6.508 2.70337 6.625C4.15237 6.949 5.71837 7.174 7.20337 7.3V18.1C7.20337 18.595 7.60837 19 8.10337 19C8.59835 19 9.00335 18.595 9.00335 18.1V13.6H10.8033V18.1C10.8033 18.595 11.2083 19 11.7033 19C12.1983 19 12.6033 18.595 12.6033 18.1V7.3C14.0883 7.174 15.6543 6.949 17.0943 6.625C17.5983 6.508 17.9043 5.995 17.7783 5.491ZM9.90335 4.6C10.8933 4.6 11.7033 3.79 11.7033 2.8C11.7033 1.81 10.8933 1 9.90335 1C8.91335 1 8.10337 1.81 8.10337 2.8C8.10337 3.79 8.91335 4.6 9.90335 4.6Z" fill="#333333"/>
</svg>
