<svg width="20" height="20" viewBox="0 0 20 20" fill="none" xmlns="http://www.w3.org/2000/svg">
<path d="M15.9041 8.79674H14.6184V4.85924C14.6184 4.79425 14.5872 4.73192 14.5315 4.68597L11.367 2.07178C11.3114 2.0258 11.2359 2 11.1573 2H2.92957C2.41699 2 2 2.34447 2 2.7679V15.3158C2 15.7392 2.41699 16.0837 2.92957 16.0837H7.69609V16.6229C7.69609 17.1904 8.25507 17.6522 8.9421 17.6522H15.904C16.591 17.6522 17.15 17.1904 17.15 16.6229V9.82609C17.1501 9.25846 16.591 8.79674 15.9041 8.79674ZM11.454 2.83672L13.6056 4.61416H12.1067C11.7468 4.61416 11.454 4.37228 11.454 4.07498V2.83672ZM7.69609 9.82609V15.5935H2.92957C2.74416 15.5935 2.59332 15.4689 2.59332 15.3158V2.7679C2.59332 2.61475 2.74416 2.49014 2.92957 2.49014H10.8606V4.07498C10.8606 4.64256 11.4196 5.1043 12.1066 5.1043H14.0251V8.79671H8.94213C8.25507 8.79674 7.69609 9.25846 7.69609 9.82609ZM16.5568 16.6229C16.5568 16.9201 16.2639 17.1621 15.9041 17.1621H8.94213C8.58225 17.1621 8.28946 16.9201 8.28946 16.6229V9.82609C8.28946 9.52876 8.58225 9.2869 8.94213 9.2869H15.9041C16.2639 9.2869 16.5568 9.52876 16.5568 9.82609V16.6229Z" fill="#333333"/>
</svg>
