<svg width="20" height="20" viewBox="0 0 20 20" fill="none" xmlns="http://www.w3.org/2000/svg">
<path fill-rule="evenodd" clip-rule="evenodd" d="M18 17.6071C18 18.6127 17.1842 19.4286 16.1786 19.4286H2.82143C1.81585 19.4286 1 18.6127 1 17.6071V4.25C1 3.24442 1.81585 2.42857 2.82143 2.42857H4.64286V0.455357C4.64286 0.204911 4.84777 0 5.09821 0H6.61607C6.86652 0 7.07143 0.204911 7.07143 0.455357V2.42857H11.9286V0.455357C11.9286 0.204911 12.1335 0 12.3839 0H13.9018C14.1522 0 14.3571 0.204911 14.3571 0.455357V2.42857H16.1786C17.1842 2.42857 18 3.24442 18 4.25V17.6071ZM5.09821 10.9286H6.61607C6.86652 10.9286 7.07143 10.7237 7.07143 10.4732V8.95536C7.07143 8.70491 6.86652 8.5 6.61607 8.5H5.09821C4.84777 8.5 4.64286 8.70491 4.64286 8.95536V10.4732C4.64286 10.7237 4.84777 10.9286 5.09821 10.9286ZM10.7143 8.95536V10.4732C10.7143 10.7237 10.5094 10.9286 10.2589 10.9286H8.74107C8.49062 10.9286 8.28571 10.7237 8.28571 10.4732V8.95536C8.28571 8.70491 8.49062 8.5 8.74107 8.5H10.2589C10.5094 8.5 10.7143 8.70491 10.7143 8.95536ZM14.3571 10.4732V8.95536C14.3571 8.70491 14.1522 8.5 13.9018 8.5H12.3839C12.1335 8.5 11.9286 8.70491 11.9286 8.95536V10.4732C11.9286 10.7237 12.1335 10.9286 12.3839 10.9286H13.9018C14.1522 10.9286 14.3571 10.7237 14.3571 10.4732ZM10.7143 12.5982V14.1161C10.7143 14.3665 10.5094 14.5714 10.2589 14.5714H8.74107C8.49062 14.5714 8.28571 14.3665 8.28571 14.1161V12.5982C8.28571 12.3478 8.49062 12.1429 8.74107 12.1429H10.2589C10.5094 12.1429 10.7143 12.3478 10.7143 12.5982ZM7.07143 14.1161V12.5982C7.07143 12.3478 6.86652 12.1429 6.61607 12.1429H5.09821C4.84777 12.1429 4.64286 12.3478 4.64286 12.5982V14.1161C4.64286 14.3665 4.84777 14.5714 5.09821 14.5714H6.61607C6.86652 14.5714 7.07143 14.3665 7.07143 14.1161ZM14.3571 12.5982V14.1161C14.3571 14.3665 14.1522 14.5714 13.9018 14.5714H12.3839C12.1335 14.5714 11.9286 14.3665 11.9286 14.1161V12.5982C11.9286 12.3478 12.1335 12.1429 12.3839 12.1429H13.9018C14.1522 12.1429 14.3571 12.3478 14.3571 12.5982ZM16.1786 6.07143V17.3795C16.1786 17.5047 16.0761 17.6071 15.9509 17.6071H3.04911C2.92388 17.6071 2.82143 17.5047 2.82143 17.3795V6.07143H16.1786Z" fill="currentcolor"/>
</svg>
