<svg width="20" height="20" viewBox="0 0 20 20" fill="none" xmlns="http://www.w3.org/2000/svg">
<path fill-rule="evenodd" clip-rule="evenodd" d="M20 14.9688C20 14.7109 19.7891 14.5 19.5312 14.5H2.5V2.46875C2.5 2.21094 2.28906 2 2.03125 2H0.46875C0.210938 2 0 2.21094 0 2.46875V16.5312C0 16.7891 0.210938 17 0.46875 17H19.5312C19.7891 17 20 16.7891 20 16.5312V14.9688ZM18.1964 10.125H4.80357C4.36161 10.125 4 9.91406 4 9.65625V8.09375C4 7.83594 4.36161 7.625 4.80357 7.625H18.1964C18.6384 7.625 19 7.83594 19 8.09375V9.65625C19 9.91406 18.6384 10.125 18.1964 10.125Z" fill="currentcolor"/>
</svg>
