<svg width="20" height="20" viewBox="0 0 20 20" fill="none" xmlns="http://www.w3.org/2000/svg">
<path fill-rule="evenodd" clip-rule="evenodd" d="M20 14.9688C20 14.7109 19.7891 14.5 19.5312 14.5H2.5V2.46875C2.5 2.21094 2.28906 2 2.03125 2H0.46875C0.210938 2 0 2.21094 0 2.46875V16.5312C0 16.7891 0.210938 17 0.46875 17H19.5312C19.7891 17 20 16.7891 20 16.5312V14.9688ZM13.4375 3.25H17.8125C18.332 3.25 18.75 3.66797 18.75 4.1875V8.5625C18.75 9.39844 17.7383 9.81641 17.1484 9.22656L15.8438 7.92188L11.5781 12.1875C11.3945 12.3711 11.0977 12.3711 10.9141 12.1875L8.74609 10.0195L5.53906 13.2266C5.35547 13.4141 5.05469 13.4102 4.87109 13.2227L3.75781 12.0742C3.57812 11.8906 3.58203 11.5938 3.76562 11.4141L8.41406 6.8125C8.59766 6.62891 8.89062 6.62891 9.07422 6.8125L11.2461 8.98438L14.0586 6.13672L12.7734 4.85156C12.1836 4.26172 12.6016 3.25 13.4375 3.25Z" fill="currentcolor"/>
</svg>
