<svg width="20" height="20" viewBox="0 0 20 20" fill="none" xmlns="http://www.w3.org/2000/svg">
<path fill-rule="evenodd" clip-rule="evenodd" d="M9.9602 0.428402V8.54927H17.835C18.0736 8.54927 18.2604 8.34241 18.25 8.09632C18.0286 3.73096 14.636 0.22868 10.3994 0.000425116C10.1608 -0.0102743 9.9602 0.182315 9.9602 0.428402ZM19.1146 10.2612C19.3532 10.2612 19.54 10.468 19.5296 10.7141C19.4328 12.6115 18.7272 14.4803 17.413 15.9854C17.254 16.1673 16.9773 16.178 16.8078 16.0032L11.2398 10.2612H19.1146ZM13.8544 16.0496C14.0307 15.8891 14.0342 15.6038 13.8682 15.4326L8.30017 9.69054V1.56967C8.30017 1.32359 8.09958 1.12743 7.86095 1.1417C3.48608 1.37708 0.00692641 5.10405 9.60896e-06 9.67271C-0.00690719 14.3912 3.72125 18.2465 8.29325 18.2501C10.4305 18.2501 12.3811 17.4191 13.8544 16.0496Z" fill="currentcolor"/>
</svg>
