<svg width="20" height="20" viewBox="0 0 20 20" fill="none" xmlns="http://www.w3.org/2000/svg">
<path fill-rule="evenodd" clip-rule="evenodd" d="M19.5312 14.5C19.7891 14.5 20 14.7109 20 14.9688V16.5312C20 16.7891 19.7891 17 19.5312 17H0.46875C0.210938 17 0 16.7891 0 16.5312V2.46875C0 2.21094 0.210938 2 0.46875 2H2.03125C2.28906 2 2.5 2.21094 2.5 2.46875V14.5H19.5312ZM7.5 12.7812V9.96875C7.5 9.71094 7.28906 9.5 7.03125 9.5H5.46875C5.21094 9.5 5 9.71094 5 9.96875V12.7812C5 13.0391 5.21094 13.25 5.46875 13.25H7.03125C7.28906 13.25 7.5 13.0391 7.5 12.7812ZM15 7.46875V12.7812C15 13.0391 14.7891 13.25 14.5312 13.25H12.9688C12.7109 13.25 12.5 13.0391 12.5 12.7812V7.46875C12.5 7.21094 12.7109 7 12.9688 7H14.5312C14.7891 7 15 7.21094 15 7.46875ZM11.25 12.7812V4.96875C11.25 4.71094 11.0391 4.5 10.7812 4.5H9.21875C8.96094 4.5 8.75 4.71094 8.75 4.96875V12.7812C8.75 13.0391 8.96094 13.25 9.21875 13.25H10.7812C11.0391 13.25 11.25 13.0391 11.25 12.7812ZM18.75 3.71875V12.7812C18.75 13.0391 18.5391 13.25 18.2812 13.25H16.7188C16.4609 13.25 16.25 13.0391 16.25 12.7812V3.71875C16.25 3.46094 16.4609 3.25 16.7188 3.25H18.2812C18.5391 3.25 18.75 3.46094 18.75 3.71875Z" fill="currentcolor"/>
</svg>
