<svg width="20" height="20" viewBox="0 0 20 20" fill="none" xmlns="http://www.w3.org/2000/svg">
<path fill-rule="evenodd" clip-rule="evenodd" d="M20 14.9688C20 14.7109 19.7891 14.5 19.5312 14.5H2.5V2.46875C2.5 2.21094 2.28906 2 2.03125 2H0.46875C0.210938 2 0 2.21094 0 2.46875V16.5312C0 16.7891 0.210938 17 0.46875 17H19.5312C19.7891 17 20 16.7891 20 16.5312V14.9688ZM11.25 7.9375L14.5586 5.73047C14.793 5.57422 15.1133 5.66016 15.2383 5.91406L18.75 13.25H3.75V9.1875L7.14062 3.53516C7.3125 3.25 7.71875 3.23047 7.91797 3.49609L11.25 7.9375Z" fill="currentcolor"/>
</svg>
