<svg width="20" height="20" viewBox="0 0 20 20" fill="none" xmlns="http://www.w3.org/2000/svg">
<path fill-rule="evenodd" clip-rule="evenodd" d="M17 4.08333V16.9167C17 17.8832 16.2165 18.6667 15.25 18.6667H4.75C3.78349 18.6667 3 17.8832 3 16.9167V4.08333C3 3.11682 3.78349 2.33333 4.75 2.33333H7.66667C7.66667 1.04672 8.71339 0 10 0C11.2866 0 12.3333 1.04672 12.3333 2.33333H15.25C16.2165 2.33333 17 3.11682 17 4.08333ZM10 1.45833C9.51674 1.45833 9.125 1.85008 9.125 2.33333C9.125 2.81659 9.51674 3.20833 10 3.20833C10.4833 3.20833 10.875 2.81659 10.875 2.33333C10.875 1.85008 10.4833 1.45833 10 1.45833ZM13.5 4.88542V5.61458C13.5 5.7354 13.4021 5.83333 13.2812 5.83333H6.71875C6.59794 5.83333 6.5 5.7354 6.5 5.61458V4.88542C6.5 4.7646 6.59794 4.66667 6.71875 4.66667H13.2812C13.4021 4.66667 13.5 4.7646 13.5 4.88542Z" fill="currentcolor"/>
</svg>
