<svg width="20" height="20" viewBox="0 0 20 20" fill="none" xmlns="http://www.w3.org/2000/svg">
<path d="M17.7323 5.27558L13.0078 10L17.7323 14.7244C18.0892 15.0814 18.0892 15.6587 17.7323 16.0157L16.0157 17.7323C15.6587 18.0892 15.0814 18.0892 14.7244 17.7323L10 13.0078L5.27558 17.7323C4.91859 18.0892 4.34132 18.0892 3.98433 17.7323L2.26774 16.0157C1.91075 15.6587 1.91075 15.0814 2.26774 14.7244L6.99217 10L2.26774 5.27558C1.91075 4.91859 1.91075 4.34132 2.26774 3.98433L3.98433 2.26774C4.34132 1.91075 4.91859 1.91075 5.27558 2.26774L10 6.99217L14.7244 2.26774C15.0814 1.91075 15.6587 1.91075 16.0157 2.26774L17.7323 3.98433C18.0892 4.34132 18.0892 4.91859 17.7323 5.27558Z" fill="currentcolor"/>
</svg>
