<svg width="20" height="20" viewBox="0 0 20 20" fill="none" xmlns="http://www.w3.org/2000/svg">
<path fill-rule="evenodd" clip-rule="evenodd" d="M9.34167 0.119657L1.21508 3.16713C0.48447 3.44062 0 4.14388 0 4.92528V13.72C0 14.431 0.402422 15.0796 1.03536 15.3961L9.16195 19.4594C9.68939 19.725 10.3106 19.725 10.8381 19.4594L18.9646 15.3961C19.6015 15.0796 20 14.4271 20 13.72V4.92528C20 4.14388 19.5155 3.44452 18.7849 3.17103L10.6583 0.123564C10.2364 -0.0405309 9.76753 -0.0405309 9.34167 0.119657ZM10.002 2.54591L17.5034 5.35896V5.40194L10.002 8.44941L2.50049 5.40194V5.35896L10.002 2.54591ZM11.2522 10.6373V16.4549L17.5034 13.3293V8.09778L11.2522 10.6373Z" fill="currentcolor"/>
</svg>
