<svg width="20" height="20" viewBox="0 0 20 20" fill="none" xmlns="http://www.w3.org/2000/svg">
<path fill-rule="evenodd" clip-rule="evenodd" d="M19.0859 9.52441L15.3125 8.11035V3.87207C15.3125 3.28613 14.9492 2.7627 14.3984 2.55566L10.4922 1.09082C10.1758 0.969727 9.82422 0.969727 9.50391 1.09082L5.59766 2.55566C5.04688 2.7627 4.68359 3.28613 4.68359 3.87207V8.11035L0.910156 9.52441C0.363281 9.73145 0 10.2549 0 10.8408V15.1416C0 15.6729 0.300781 16.1611 0.777344 16.3994L4.68359 18.3525C5.07812 18.5518 5.54688 18.5518 5.94141 18.3525L10 16.3213L14.0586 18.3525C14.4531 18.5518 14.9219 18.5518 15.3164 18.3525L19.2227 16.3994C19.6992 16.1611 20 15.6729 20 15.1416V10.8408C20 10.2549 19.6367 9.73145 19.0859 9.52441ZM13.9844 8.1416L10.6641 9.3877V6.72363L13.9844 5.27832V8.1416ZM10 2.3252L6.01562 3.81738V3.84082L10 5.45801L13.9844 3.84082V3.81738L10 2.3252ZM9.29688 15.1885L5.97656 16.8486V13.7588L9.29688 12.2432V15.1885ZM5.3125 12.4307L9.29688 10.8135V10.79L5.3125 9.29785L1.32812 10.79V10.8135L5.3125 12.4307ZM18.6719 15.1885L15.3516 16.8486V13.7588L18.6719 12.2432V15.1885ZM14.6875 12.4307L18.6719 10.8135V10.79L14.6875 9.29785L10.7031 10.79V10.8135L14.6875 12.4307Z" fill="currentcolor"/>
</svg>
