<svg width="20" height="20" viewBox="0 0 20 20" fill="none" xmlns="http://www.w3.org/2000/svg">
<path fill-rule="evenodd" clip-rule="evenodd" d="M0.9375 1H8.4375C8.95527 1 9.375 1.52279 9.375 2.16769V9.95231C9.375 10.5972 8.95527 11.12 8.4375 11.12H0.9375C0.419727 11.12 0 10.5972 0 9.95231V2.16769C0 1.52279 0.419727 1 0.9375 1ZM19.0625 1H11.5625C11.0447 1 10.625 1.31615 10.625 1.70615V6.41385C10.625 6.80385 11.0447 7.12 11.5625 7.12H19.0625C19.5803 7.12 20 6.80385 20 6.41385V1.70615C20 1.31615 19.5803 1 19.0625 1ZM0 13.0862V17.7938C0 18.1838 0.419727 18.5 0.9375 18.5H8.4375C8.95527 18.5 9.375 18.1838 9.375 17.7938V13.0862C9.375 12.6962 8.95527 12.38 8.4375 12.38H0.9375C0.419727 12.38 0 12.6962 0 13.0862ZM19.0625 18.5H11.5625C11.0447 18.5 10.625 17.9772 10.625 17.3323V9.54769C10.625 8.90279 11.0447 8.38 11.5625 8.38H19.0625C19.5803 8.38 20 8.90279 20 9.54769V17.3323C20 17.9772 19.5803 18.5 19.0625 18.5Z" fill="currentcolor"/>
</svg>
