<svg width="20" height="20" viewBox="0 0 20 20" fill="none" xmlns="http://www.w3.org/2000/svg">
<path fill-rule="evenodd" clip-rule="evenodd" d="M19.5 4.64285V2.85715C19.5 2.62596 19.4155 2.40103 19.2558 2.18552L19.727 1.68662L18.273 0.313376L17.5623 1.06588C15.958 0.4165 13.5019 0 10.75 0C5.9193 0 2.00004 1.28348 2.00004 2.85715V4.64285C2.00004 6.21652 5.9193 7.5 10.75 7.5C11.0011 7.5 11.2496 7.49653 11.4953 7.48974L10.2874 8.76868C7.01433 8.71673 3.79537 8.11142 2.00004 6.875V10.8929C2.00004 11.898 3.59903 12.7848 6.0132 13.2943L4.99255 14.375C3.80478 14.0706 2.77111 13.656 2.00004 13.125V17.1429C2.00004 17.2567 2.02056 17.3691 2.06047 17.4796L1.27297 18.3134L2.72699 19.6866L3.58302 18.7802C5.16605 19.517 7.78653 20 10.75 20C15.5808 20 19.5 18.7165 19.5 17.1429V13.125C17.6201 14.4196 14.1794 15.0223 10.75 15.0223C9.59123 15.0223 8.43112 14.9535 7.33038 14.8125L8.43001 13.6481C9.16894 13.7145 9.94689 13.75 10.75 13.75C15.5808 13.75 19.5 12.4665 19.5 10.8929V6.875C18.0581 7.86806 15.6978 8.45399 13.1287 8.6731L14.4965 7.22476C17.454 6.76538 19.5 5.77986 19.5 4.64285ZM14.4965 7.22476C13.5734 7.36814 12.5615 7.46027 11.4953 7.48974L17.5623 1.06588C18.3605 1.38898 18.9478 1.76973 19.2558 2.18552L14.4965 7.22476ZM13.1287 8.6731C12.3484 8.73964 11.5489 8.77234 10.75 8.77234C10.5958 8.77234 10.4415 8.77112 10.2874 8.76868L6.0132 13.2943C6.75026 13.4499 7.5633 13.5703 8.43001 13.6481L13.1287 8.6731ZM7.33038 14.8125C6.50973 14.7073 5.72207 14.5619 4.99255 14.375L2.06047 17.4796C2.23373 17.9591 2.77233 18.4029 3.58302 18.7802L7.33038 14.8125Z" fill="#333333"/>
</svg>
