<svg width="20" height="20" viewBox="0 0 20 20" fill="none" xmlns="http://www.w3.org/2000/svg">
<path fill-rule="evenodd" clip-rule="evenodd" d="M19.5 2.85715V4.64285C19.5 6.21652 15.5807 7.5 10.75 7.5C5.91926 7.5 2 6.21652 2 4.64285V2.85715C2 1.28348 5.91926 0 10.75 0C15.5807 0 19.5 1.28348 19.5 2.85715ZM19.5 6.875V10.8929C19.5 12.4665 15.5807 13.75 10.75 13.75C5.91926 13.75 2 12.4665 2 10.8929V6.875C3.87988 8.16965 7.32063 8.77234 10.75 8.77234C14.1794 8.77234 17.6201 8.16965 19.5 6.875ZM19.5 17.1429V13.125C17.6201 14.4196 14.1794 15.0223 10.75 15.0223C7.32063 15.0223 3.87988 14.4196 2 13.125V17.1429C2 18.7165 5.91926 20 10.75 20C15.5807 20 19.5 18.7165 19.5 17.1429Z" fill="currentcolor"/>
</svg>
