<svg width="20" height="20" viewBox="0 0 20 20" fill="none" xmlns="http://www.w3.org/2000/svg">
<path fill-rule="evenodd" clip-rule="evenodd" d="M19 13.6607C19 13.9453 18.8672 14.2033 18.6623 14.3665C18.5029 14.9509 18.5029 16.6167 18.6623 17.2011C18.8672 17.3681 19 17.6261 19 17.9107V18.5179C19 19.0225 18.594 19.4286 18.0893 19.4286H5.64286C3.6317 19.4286 2 17.7969 2 15.7857V3.64286C2 1.6317 3.6317 0 5.64286 0H18.0893C18.594 0 19 0.406027 19 0.910714V13.6607ZM7.08482 4.85714C6.9596 4.85714 6.85714 4.9596 6.85714 5.08482V5.84375C6.85714 5.96897 6.9596 6.07143 7.08482 6.07143H15.1295C15.2547 6.07143 15.3571 5.96897 15.3571 5.84375V5.08482C15.3571 4.9596 15.2547 4.85714 15.1295 4.85714H7.08482ZM6.85714 7.51339C6.85714 7.38817 6.9596 7.28571 7.08482 7.28571H15.1295C15.2547 7.28571 15.3571 7.38817 15.3571 7.51339V8.27232C15.3571 8.39754 15.2547 8.5 15.1295 8.5H7.08482C6.9596 8.5 6.85714 8.39754 6.85714 8.27232V7.51339ZM5.64286 17H16.4728C16.4007 16.3511 16.4007 15.2203 16.4728 14.5714H5.64286C4.975 14.5714 4.42857 15.1179 4.42857 15.7857C4.42857 16.4574 4.97121 17 5.64286 17Z" fill="currentcolor"/>
</svg>
