<svg width="20" height="20" viewBox="0 0 20 20" fill="none" xmlns="http://www.w3.org/2000/svg">
<path fill-rule="evenodd" clip-rule="evenodd" d="M10 0C4.47714 0 0 4.47714 0 10C0 15.5229 4.47714 20 10 20C15.5229 20 20 15.5229 20 10C20 4.47714 15.5229 0 10 0ZM10 1.93548C14.4569 1.93548 18.0645 5.54238 18.0645 10C18.0645 14.4569 14.4576 18.0645 10 18.0645C5.54306 18.0645 1.93548 14.4576 1.93548 10C1.93548 5.54306 5.54238 1.93548 10 1.93548ZM4.94554 10C4.94554 7.20848 7.20848 4.94554 10 4.94554C12.7915 4.94554 15.0545 7.20848 15.0545 10C15.0545 12.7915 12.7915 15.0545 10 15.0545C7.20848 15.0545 4.94554 12.7915 4.94554 10Z" fill="currentcolor"/>
</svg>
