<svg width="20" height="20" viewBox="0 0 20 20" fill="none" xmlns="http://www.w3.org/2000/svg">
<path fill-rule="evenodd" clip-rule="evenodd" d="M11.5625 0H8.4375C7.91797 0 7.5 0.417969 7.5 0.9375V7.5H4.07031C3.375 7.5 3.02734 8.33984 3.51953 8.83203L9.46875 14.7773C9.76172 15.0703 10.2422 15.0703 10.5352 14.7773L16.4766 8.83203C16.9688 8.33984 16.6211 7.5 15.9258 7.5H12.5V0.9375C12.5 0.417969 12.082 0 11.5625 0ZM20 19.0625V14.6875C20 14.168 19.582 13.75 19.0625 13.75H13.332L11.418 15.6641C10.6328 16.4492 9.36719 16.4492 8.58203 15.6641L6.66797 13.75H0.9375C0.417969 13.75 0 14.168 0 14.6875V19.0625C0 19.582 0.417969 20 0.9375 20H19.0625C19.582 20 20 19.582 20 19.0625ZM15.1562 18.125C15.1562 17.6953 14.8047 17.3438 14.375 17.3438C13.9453 17.3438 13.5938 17.6953 13.5938 18.125C13.5938 18.5547 13.9453 18.9062 14.375 18.9062C14.8047 18.9062 15.1562 18.5547 15.1562 18.125ZM16.875 17.3438C17.3047 17.3438 17.6562 17.6953 17.6562 18.125C17.6562 18.5547 17.3047 18.9062 16.875 18.9062C16.4453 18.9062 16.0938 18.5547 16.0938 18.125C16.0938 17.6953 16.4453 17.3438 16.875 17.3438Z" fill="currentcolor"/>
</svg>
