@@ -0,0 +1,3 @@
<svg width="20" height="20" viewBox="0 0 20 20" fill="none" xmlns="http://www.w3.org/2000/svg">
<path fill-rule="evenodd" clip-rule="evenodd" d="M8.5 6C7.67083 6 7 5.32917 7 4.5C7 3.67083 7.67083 3 8.5 3C9.32917 3 10 3.67083 10 4.5C10 5.32917 9.32917 6 8.5 6ZM10 8.5C10 7.67083 9.32917 7 8.5 7C7.67083 7 7 7.67083 7 8.5C7 9.32917 7.67083 10 8.5 10C9.32917 10 10 9.32917 10 8.5ZM11 4.5C11 5.32917 11.6708 6 12.5 6C13.3292 6 14 5.32917 14 4.5C14 3.67083 13.3292 3 12.5 3C11.6708 3 11 3.67083 11 4.5ZM6 8.5C6 7.67083 5.32917 7 4.5 7C3.67083 7 3 7.67083 3 8.5C3 9.32917 3.67083 10 4.5 10C5.32917 10 6 9.32917 6 8.5ZM3 4.5C3 5.32917 3.67083 6 4.5 6C5.32917 6 6 5.32917 6 4.5C6 3.67083 5.32917 3 4.5 3C3.67083 3 3 3.67083 3 4.5ZM4.5 14C3.67083 14 3 13.3292 3 12.5C3 11.6708 3.67083 11 4.5 11C5.32917 11 6 11.6708 6 12.5C6 13.3292 5.32917 14 4.5 14Z" fill="#333333"/>
</svg>