<svg width="20" height="20" viewBox="0 0 20 20" fill="none" xmlns="http://www.w3.org/2000/svg">
<path fill-rule="evenodd" clip-rule="evenodd" d="M12.5625 4.98438C12.5625 5.37109 12.8789 5.6875 13.2656 5.6875H17.25V15.2969C17.25 15.6852 16.9352 16 16.5469 16H6.70312C6.31479 16 6 15.6852 6 15.2969V1.70312C6 1.31479 6.31479 1 6.70312 1H12.5625V4.98438ZM17.25 4.75V4.57249C17.25 4.38601 17.1759 4.20717 17.0441 4.07529L14.1747 1.20593C14.0428 1.07409 13.864 1 13.6775 1H13.5V4.75H17.25Z" fill="#333333"/>
<path fill-rule="evenodd" clip-rule="evenodd" d="M5 4H3.70312C3.31479 4 3 4.31479 3 4.70312V18.2969C3 18.6852 3.31479 19 3.70312 19H13.5469C13.9352 19 14.25 18.6852 14.25 18.2969V17H5.5C5.22386 17 5 16.7761 5 16.5V4Z" fill="#333333"/>
</svg>
