<svg width="20" height="20" viewBox="0 0 20 20" fill="none" xmlns="http://www.w3.org/2000/svg">
<path fill-rule="evenodd" clip-rule="evenodd" d="M19.6042 3.1556L17.9097 1.4082C17.3819 0.863932 16.5243 0.863932 15.9931 1.4082L14.7639 2.67578C14.6319 2.81185 14.6319 3.03385 14.7639 3.16992L17.8958 6.39974C18.0278 6.53581 18.2431 6.53581 18.375 6.39974L19.6042 5.13216C20.1319 4.58431 20.1319 3.69987 19.6042 3.1556ZM13.9792 3.97559L17.1111 7.2054C17.2431 7.34147 17.2431 7.56348 17.1111 7.69954L9.52778 15.5199L6.30556 15.8887C5.875 15.9388 5.51042 15.5628 5.55903 15.1188L5.91667 11.7959L13.5 3.97559C13.6319 3.83952 13.8472 3.83952 13.9792 3.97559ZM13.3333 17.0381V13.3929C13.3333 13.2783 13.3785 13.1709 13.4549 13.0885L14.8438 11.6562C15.1076 11.3877 15.5556 11.5775 15.5556 11.9606V17.611C15.5556 18.5599 14.809 19.3298 13.8889 19.3298H1.66667C0.746528 19.3298 0 18.5599 0 17.611V5.00684C0 4.05794 0.746528 3.28809 1.66667 3.28809H11.5903C11.9618 3.28809 12.1493 3.75 11.8854 4.02214L10.4965 5.45443C10.4167 5.5332 10.3125 5.57975 10.2014 5.57975H2.22222V17.0381H13.3333Z" fill="currentcolor"/>
</svg>
