<svg width="20" height="20" viewBox="0 0 20 20" fill="none" xmlns="http://www.w3.org/2000/svg">
<path fill-rule="evenodd" clip-rule="evenodd" d="M19 16.1786V2.82143C19 1.81547 18.1845 1 17.1786 1H3.82143C2.81547 1 2 1.81547 2 2.82143V16.1786C2 17.1845 2.81547 18 3.82143 18H17.1786C18.1845 18 19 17.1845 19 16.1786ZM11.4118 3.42857H15.6607C16.1637 3.42857 16.5714 3.83631 16.5714 4.33929V8.58849C16.5714 9.40229 15.587 9.8027 15.0167 9.23248L13.8029 8.01853L6.38338 15.438C6.20556 15.6159 5.91725 15.6159 5.73939 15.438L4.56195 14.2606C4.38414 14.0828 4.38414 13.7944 4.56195 13.6166L11.9815 6.19707L10.7678 4.98327C10.1945 4.4099 10.6031 3.42857 11.4118 3.42857Z" fill="currentcolor"/>
</svg>
