<svg width="20" height="20" viewBox="0 0 20 20" fill="none" xmlns="http://www.w3.org/2000/svg">
<path fill-rule="evenodd" clip-rule="evenodd" d="M15.0757 15.5322C17.035 14.529 18.6697 12.9634 19.7692 11.0393C20.0769 10.5008 20.0769 9.83254 19.7692 9.29408C17.8114 5.86796 14.1601 3.57812 10 3.57812C8.98977 3.57812 8.00974 3.71333 7.07668 3.96688L5.30453 1.36666C5.04064 0.977793 4.5212 0.883262 4.14411 1.1554L3.6889 1.48411C3.31182 1.75624 3.22015 2.29192 3.48404 2.68079L14.6955 18.9666C14.9594 19.3555 15.4788 19.45 15.8559 19.1779L16.3111 18.8492C16.6882 18.5771 16.7799 18.0414 16.516 17.6525L15.0761 15.5327L15.0757 15.5322ZM11.0858 16.7024L9.95463 15.0359C7.36581 15.0107 5.27779 12.8428 5.27779 10.1667C5.27779 9.59686 5.37279 9.05019 5.54679 8.54216L3.56495 5.62247C2.20693 6.58074 1.06491 7.83432 0.23078 9.29404C-0.0769268 9.83251 -0.0769268 10.5008 0.23078 11.0393C2.18859 14.4654 5.83995 16.7552 10 16.7552C10.3626 16.7551 10.7249 16.7375 11.0858 16.7024ZM14.7222 10.1667C14.7222 7.47489 12.6098 5.29687 10 5.29687C9.37713 5.29687 8.78279 5.42123 8.23859 5.64678L8.90869 6.61565C9.80692 6.32307 10.8199 6.39497 11.7004 6.88099H11.6993C10.8781 6.88099 10.2125 7.56741 10.2125 8.41426C10.2125 9.26024 10.8773 9.94752 11.6993 9.94752C12.5205 9.94752 13.1861 9.2611 13.1861 8.41426V8.41318C13.8272 9.64818 13.7525 11.2031 12.8997 12.386V12.3864L13.5703 13.3553C14.2881 12.5013 14.7222 11.3868 14.7222 10.1667ZM9.09772 13.7734L6.40571 9.80752C6.23161 11.6834 7.42356 13.3293 9.09772 13.7734Z" fill="currentcolor"/>
</svg>
