<svg width="20" height="20" viewBox="0 0 20 20" fill="none" xmlns="http://www.w3.org/2000/svg">
<path fill-rule="evenodd" clip-rule="evenodd" d="M19.7692 8.71595C17.8114 5.28984 14.1601 3 10 3C5.8382 3 2.18765 5.29145 0.23078 8.71595C-0.0769266 9.25442 -0.0769266 9.9227 0.23078 10.4612C2.18859 13.8872 5.83994 16.1771 10 16.1771C14.1618 16.1771 17.8123 13.8856 19.7692 10.4611C20.0769 9.92268 20.0769 9.25441 19.7692 8.71595ZM10 14.4583C7.39021 14.4583 5.27779 12.2803 5.27779 9.58854C5.27779 6.89719 7.3898 4.71875 10 4.71875C12.6098 4.71875 14.7222 6.89676 14.7222 9.58854C14.7222 12.2799 12.6102 14.4583 10 14.4583ZM10 13.3125C11.9944 13.3125 13.6111 11.6452 13.6111 9.58854C13.6111 7.53184 11.9944 5.86458 10 5.86458C9.38514 5.86458 8.80629 6.02325 8.29955 6.30272L8.30066 6.30269C9.12188 6.30269 9.7876 6.98922 9.7876 7.8361C9.7876 8.68294 9.12188 9.36947 8.30066 9.36947C7.47945 9.36947 6.81372 8.68298 6.81372 7.8361L6.81376 7.83495C6.54275 8.35752 6.38889 8.95447 6.38889 9.58854C6.38889 11.6452 8.00563 13.3125 10 13.3125Z" fill="currentcolor"/>
</svg>
