<svg width="20" height="20" viewBox="0 0 20 20" fill="none" xmlns="http://www.w3.org/2000/svg">
<path fill-rule="evenodd" clip-rule="evenodd" d="M18.8889 7.40027C19.5361 7.63631 20 8.2726 20 9.02083C20 9.76906 19.5361 10.4054 18.8889 10.6414V14.75C18.8889 16.0156 17.894 17.0417 16.6667 17.0417C16.5653 16.9516 16.4632 16.8604 16.36 16.7684C14.2926 14.923 11.8341 12.7284 7.95038 12.4816C6.83587 12.8628 6.39392 14.203 6.96021 15.0867C7.04016 15.2107 7.05382 15.368 6.99649 15.5047C6.63743 16.3622 7.04118 17.0384 7.68382 17.6838C8.11569 18.1176 7.97979 18.862 7.42264 19.0995C6.54007 19.4757 4.88816 19.3861 4.16663 18.9151C4.00278 18.8081 3.88122 18.6444 3.82212 18.4539C3.76797 18.2793 3.71227 18.1046 3.65638 17.9292C3.12688 16.2676 2.58022 14.5523 3.16885 12.4583H1.66667C0.746181 12.4583 0 11.6888 0 10.7396V7.30208C0 6.35283 0.746181 5.58333 1.66667 5.58333H7.22222C11.5316 5.58333 14.1654 3.23236 16.3589 1.27432C16.4624 1.18191 16.565 1.09037 16.6667 1C17.894 1 18.8889 2.02602 18.8889 3.29167V7.40027ZM8.88889 10.2695C12.3252 10.7007 14.7705 12.4181 16.6667 14.0287V4.01297C14.7705 5.62358 12.3252 7.3409 8.88889 7.77209V10.2695Z" fill="currentcolor"/>
</svg>
