<svg width="20" height="20" viewBox="0 0 20 20" fill="none" xmlns="http://www.w3.org/2000/svg">
<path fill-rule="evenodd" clip-rule="evenodd" d="M14.0947 8.39844L18.8908 15.7617C20.0898 17.5977 18.7107 20 16.4314 20H3.901C1.62573 20 0.242556 17.6016 1.44158 15.7617L6.23765 8.39844V2.5H5.91028C5.36601 2.5 4.92814 2.08203 4.92814 1.5625V0.9375C4.92814 0.417969 5.36601 0 5.91028 0H14.4221C14.9664 0 15.4042 0.417969 15.4042 0.9375V1.5625C15.4042 2.08203 14.9664 2.5 14.4221 2.5H14.0947V8.39844ZM8.61523 9.46875L6.64278 12.5H13.6814L11.7089 9.46875C11.5616 9.26562 11.4716 9.01953 11.4716 8.75V2.5H8.85258V8.75C8.85258 9.01562 8.76664 9.26562 8.61523 9.46875Z" fill="currentcolor"/>
</svg>
