<svg width="20" height="20" viewBox="0 0 20 20" fill="none" xmlns="http://www.w3.org/2000/svg">
<path fill-rule="evenodd" clip-rule="evenodd" d="M6.85665 16.5714H7.76786C8.10319 16.5714 8.375 16.8432 8.375 17.1786V18.3929C8.375 18.7282 8.10319 19 7.76786 19H2.60714C2.27181 19 2 18.7282 2 18.3929V17.1786C2 16.8432 2.27181 16.5714 2.60714 16.5714H3.62179L8.54587 2.40777C8.63075 2.16363 8.86089 2 9.11936 2H11.8806C12.139 2 12.3692 2.16363 12.4541 2.40777L17.3782 16.5714H18.3929C18.7282 16.5714 19 16.8432 19 17.1786V18.3929C19 18.7282 18.7282 19 18.3929 19H13.2321C12.8968 19 12.625 18.7282 12.625 18.3929V17.1786C12.625 16.8432 12.8968 16.5714 13.2321 16.5714H14.1196L13.1107 13.506H7.86549L6.85665 16.5714ZM10.4977 4.94381C10.4606 5.19 10.3748 5.68103 10.2098 6.25842L8.61717 10.9664H12.3594L10.7909 6.26078C10.6092 5.68285 10.5295 5.19126 10.4977 4.94381Z" fill="currentcolor"/>
</svg>
