<svg width="20" height="20" viewBox="0 0 20 20" fill="none" xmlns="http://www.w3.org/2000/svg">
<path d="M10 0.3125C4.64977 0.3125 0.3125 4.64973 0.3125 10C0.3125 15.3503 4.64977 19.6875 10 19.6875C15.3502 19.6875 19.6875 15.3502 19.6875 10C19.6875 4.64977 15.3503 0.3125 10 0.3125ZM15.0823 4.91766C17.6389 7.47422 17.8167 11.3818 15.89 14.1222L5.87773 4.11C8.62008 2.18203 12.5272 2.36254 15.0823 4.91766ZM4.91766 15.0823C2.36109 12.5258 2.18328 8.61824 4.10996 5.87777L14.1223 15.89C11.38 17.818 7.47281 17.6375 4.91766 15.0823Z" fill="currentcolor"/>
</svg>
