<svg width="20" height="20" viewBox="0 0 20 20" fill="none" xmlns="http://www.w3.org/2000/svg">
<path d="M1.89059 17.2998H10.7965C11.2863 17.2998 11.6871 17.6823 11.6871 18.1499C11.6871 18.6175 11.2863 19 10.7965 19H1.89059C1.40076 19 1 18.6175 1 18.1499C1 17.6823 1.40076 17.2998 1.89059 17.2998ZM4.7761 6.30787L7.29646 3.90206L18.6337 14.724C19.3283 15.387 19.3283 16.4667 18.6337 17.1298C17.939 17.7928 16.8079 17.7928 16.1133 17.1298L4.7761 6.30787ZM12.3372 1.49626L14.8576 3.90206C15.5522 4.56515 15.5522 5.64478 14.8576 6.30787L13.5929 7.51502L8.5611 2.70341L9.81683 1.50476C10.5115 0.833172 11.6425 0.833172 12.3372 1.49626ZM3.52037 7.50652L8.5611 12.3182L7.30537 13.5168C6.61071 14.1799 5.47966 14.1799 4.785 13.5168L2.26464 11.111C1.56998 10.4479 1.56998 9.36825 2.26464 8.70517L3.52037 7.50652Z" fill="#333333"/>
</svg>
