<svg width="20" height="20" viewBox="0 0 20 20" fill="none" xmlns="http://www.w3.org/2000/svg">
<path fill-rule="evenodd" clip-rule="evenodd" d="M16.5425 7.25H19.0625C19.5803 7.25 20 7.66973 20 8.1875V11.3125C20 11.8303 19.5803 12.25 19.0625 12.25H18.75V16.625C18.75 17.6605 17.9105 18.5 16.875 18.5H3.125C2.08945 18.5 1.25 17.6605 1.25 16.625V12.25H0.9375C0.419727 12.25 0 11.8303 0 11.3125V8.1875C0 7.66973 0.419727 7.25 0.9375 7.25H3.4575C2.8625 6.58605 2.5 5.70961 2.5 4.75C2.5 2.68223 4.18223 1 6.25 1C7.79738 1 8.85434 1.71063 10.0003 3.11523C11.0648 1.80832 12.1095 1 13.75 1C15.8178 1 17.5 2.68223 17.5 4.75C17.5 5.70961 17.1375 6.58605 16.5425 7.25ZM13.75 3.5C13.0986 3.5 11.875 3.8125 10.9375 6H13.75C14.4393 6 15 5.43926 15 4.75C15 4.06074 14.4393 3.5 13.75 3.5ZM6.25 3.5C6.90141 3.5 8.125 3.8125 9.0625 6H6.25C5.56074 6 5 5.43926 5 4.75C5 4.06074 5.56074 3.5 6.25 3.5ZM11.875 8.5H8.125V15.6875C8.125 16.2053 8.54473 16.625 9.0625 16.625H10.9375C11.4553 16.625 11.875 16.2053 11.875 15.6875V8.5Z" fill="currentcolor"/>
</svg>
