<svg width="21" height="20" viewBox="0 0 21 20" fill="none" xmlns="http://www.w3.org/2000/svg">
<path fill-rule="evenodd" clip-rule="evenodd" d="M10.6507 0.000310484C12.0848 1.53247 12.9578 3.81585 13.3723 5.89921H7.87778C8.29142 3.81981 9.16291 1.535 10.5994 0.000310484L10.6122 0.000155236L10.625 0L10.6378 0.000155249L10.6507 0.000310484ZM19.5021 5.89921H14.6359C14.2643 3.89685 13.5431 1.83166 12.3696 0.158153C15.5977 0.749238 18.263 2.95053 19.5021 5.89921ZM14.8249 7.14114H19.9258C20.1369 7.93362 20.25 8.76606 20.25 9.62502C20.25 10.484 20.1369 11.3164 19.9258 12.1089H14.8249C15.0249 10.4381 15.0166 8.74223 14.8249 7.14114ZM7.87778 13.3508C8.29219 15.4342 9.16524 17.7176 10.5994 19.2497L10.6112 19.2499L10.625 19.25C10.6336 19.25 10.6421 19.2497 10.6507 19.2497C12.0871 17.715 12.9586 15.4302 13.3723 13.3508H7.87778ZM13.5744 12.1089C13.7816 10.4822 13.7819 8.76975 13.5744 7.14114H7.67565C7.46844 8.76785 7.46821 10.4803 7.67565 12.1089H13.5744ZM1.74792 13.3508H6.61418C6.9856 15.3525 7.70658 17.4178 8.88045 19.0919C5.65226 18.5008 2.98698 16.2995 1.74792 13.3508ZM14.6359 13.3508C14.2642 15.3537 13.5428 17.4187 12.3696 19.0919C15.5977 18.5008 18.263 16.2995 19.5021 13.3508H14.6359ZM1.32426 7.14114C1.11313 7.93362 1 8.76606 1 9.62502C1 10.484 1.11313 11.3164 1.32426 12.1089H6.42513C6.23345 10.5078 6.2251 8.8119 6.42513 7.14114H1.32426ZM8.88048 0.158153C7.70713 1.83147 6.98579 3.8965 6.61418 5.89921H1.74792C2.98702 2.95053 5.6523 0.749238 8.88048 0.158153Z" fill="currentcolor"/>
</svg>
