<svg width="20" height="20" viewBox="0 0 20 20" fill="none" xmlns="http://www.w3.org/2000/svg">
<path fill-rule="evenodd" clip-rule="evenodd" d="M10.8459 11.1649L19.4651 8.39469C20.1766 8.17434 20.18 7.11835 19.4651 6.89697L10.8458 4.12678C10.2936 3.95774 9.70636 3.95774 9.15414 4.12678L0.534868 6.89697C-0.176569 7.11731 -0.180007 8.1733 0.534868 8.39469L1.8943 8.8316C1.63874 9.29925 1.54415 9.79664 1.51455 10.381C1.20771 10.5589 1.00002 10.8999 1.00002 11.2917C1.00002 11.6807 1.20493 12.0197 1.5083 12.1986L1.00215 16.2056C0.982461 16.3616 1.09915 16.5 1.25002 16.5H2.75002C2.90102 16.5 3.01758 16.3614 2.9979 16.2056L2.49174 12.1986C2.79512 12.0197 3.00002 11.6807 3.00002 11.2917C3.00002 10.9126 2.80558 10.5809 2.51502 10.3987C2.54315 9.9011 2.61983 9.52311 2.88746 9.15078L9.15417 11.1649C9.7064 11.3339 10.2936 11.3339 10.8459 11.1649ZM11.1343 12.1623L11.1407 12.1602L15.8568 10.6443L16.25 13.375C16.25 14.5256 13.4518 15.4583 10 15.4583C6.54824 15.4583 3.75002 14.5256 3.75002 13.375L4.14327 10.6443L8.85933 12.1602L8.8658 12.1623L8.87227 12.1643C9.60855 12.3897 10.3915 12.3897 11.1278 12.1643L11.1343 12.1623Z" fill="currentcolor"/>
</svg>
