<svg width="20" height="20" viewBox="0 0 20 20" fill="none" xmlns="http://www.w3.org/2000/svg">
<path fill-rule="evenodd" clip-rule="evenodd" d="M18.9924 5.22293L18.7054 6.75702C18.6643 6.97652 18.4643 7.13636 18.2307 7.13636H15.0528L14.1344 12.0455H17.1402C17.4403 12.0455 17.6676 12.3045 17.6148 12.5866L17.3278 14.1207C17.2868 14.3402 17.0868 14.5 16.8532 14.5H13.6752L13.0574 17.8025C13.0163 18.022 12.8163 18.1818 12.5828 18.1818H10.9502C10.65 18.1818 10.4228 17.9228 10.4756 17.6407L11.0631 14.5H7.10015L6.48229 17.8025C6.44123 18.022 6.24125 18.1818 6.00766 18.1818H4.37512C4.07495 18.1818 3.84774 17.9228 3.90049 17.6407L4.48802 14.5H1.48227C1.18209 14.5 0.954884 14.241 1.00764 13.9589L1.29463 12.4248C1.33569 12.2053 1.53567 12.0455 1.76926 12.0455H4.94723L5.86559 7.13636H2.85983C2.55966 7.13636 2.33245 6.87733 2.3852 6.59525L2.6722 5.06116C2.71325 4.84166 2.91324 4.68182 3.14682 4.68182H6.32479L6.94261 1.37934C6.98367 1.15984 7.18365 1 7.41724 1H9.04978C9.34999 1 9.5772 1.25903 9.52441 1.54111L8.93688 4.68182H12.8999L13.5177 1.37934C13.5588 1.15984 13.7588 1 13.9923 1H15.6249C15.9251 1 16.1523 1.25903 16.0995 1.54111L15.512 4.68182H18.5177C18.8179 4.68182 19.0451 4.94085 18.9924 5.22293ZM7.55935 12.0455H11.5223L12.4407 7.13636H8.47772L7.55935 12.0455Z" fill="currentcolor"/>
</svg>
