<svg width="20" height="20" viewBox="0 0 20 20" fill="none" xmlns="http://www.w3.org/2000/svg">
<path d="M19.5 2.85V1.61667C19.5 1.27607 19.2239 1 18.8833 1H12.7167C12.3761 1 12.1 1.27607 12.1 1.61667V2.85C12.1 3.19059 12.3761 3.46667 12.7167 3.46667H14.1666V8.4H6.33336V3.46667H7.78333C8.12393 3.46667 8.4 3.19059 8.4 2.85V1.61667C8.4 1.27607 8.12393 1 7.78333 1H1.61667C1.27607 1 1 1.27607 1 1.61667V2.85C1 3.19059 1.27607 3.46667 1.61667 3.46667H3.05331V15.8H1.61667C1.27607 15.8 1 16.0761 1 16.4167V17.65C1 17.9906 1.27607 18.2667 1.61667 18.2667H7.78333C8.12393 18.2667 8.4 17.9906 8.4 17.65V16.4167C8.4 16.0761 8.12393 15.8 7.78333 15.8H6.33336V10.8667H14.1666V15.8H12.7167C12.3761 15.8 12.1 16.0761 12.1 16.4167V17.65C12.1 17.9906 12.3761 18.2667 12.7167 18.2667H18.8833C19.2239 18.2667 19.5 17.9906 19.5 17.65V16.4167C19.5 16.0761 19.2239 15.8 18.8833 15.8H17.4467V3.46667H18.8833C19.2239 3.46667 19.5 3.19059 19.5 2.85Z" fill="currentcolor"/>
</svg>
