<svg width="20" height="20" viewBox="0 0 20 20" fill="none" xmlns="http://www.w3.org/2000/svg">
<path fill-rule="evenodd" clip-rule="evenodd" d="M9.63198 19.2499C14.935 19.2462 19.2598 14.9098 19.25 9.60679C19.2402 4.29942 14.9346 0 9.62499 0C7.04611 0 4.70418 1.01435 2.97622 2.6657L1.06007 0.749546C0.668859 0.358376 0 0.635443 0 1.18865V6.83064C0 7.17361 0.277999 7.45161 0.620967 7.45161H6.26296C6.81616 7.45161 7.09323 6.78275 6.70202 6.39154L4.73224 4.42175C6.00984 3.22006 7.7305 2.48387 9.62499 2.48387C13.5716 2.48387 16.7661 5.67777 16.7661 9.62499C16.7661 13.5716 13.5722 16.7661 9.62499 16.7661C7.94764 16.7661 6.40613 16.1892 5.18806 15.2226C4.81789 14.9289 4.28448 14.9655 3.95036 15.2996L3.51308 15.7369C3.12242 16.1276 3.15455 16.7719 3.58446 17.1188C5.23774 18.4532 7.34158 19.2516 9.63198 19.2499ZM12.6099 12.1743L12.2287 12.6644C11.9129 13.0705 11.3277 13.1436 10.9216 12.8278L8.38306 10.8534V5.58871C8.38306 5.07427 8.80008 4.65725 9.31451 4.65725H9.93548C10.4499 4.65725 10.8669 5.07427 10.8669 5.58871V9.63854L12.4466 10.8672C12.8526 11.183 12.9258 11.7682 12.6099 12.1743Z" fill="currentcolor"/>
</svg>
