<svg width="20" height="20" viewBox="0 0 20 20" fill="none" xmlns="http://www.w3.org/2000/svg">
<path fill-rule="evenodd" clip-rule="evenodd" d="M16.9441 7.39134L19.8472 9.85872C20.0243 10.0091 20.0521 10.2777 19.9062 10.4639L19.0207 11.5741C18.8749 11.7567 18.611 11.7818 18.4339 11.6314L10.2664 4.69478C10.1101 4.56586 9.88784 4.56586 9.73505 4.69478L1.56755 11.6314C1.39044 11.7818 1.12653 11.7567 0.980681 11.5741L0.0951733 10.4639C-0.050675 10.2813 -0.026367 10.0091 0.150734 9.85872L8.93983 2.39213C9.55447 1.86929 10.4435 1.86929 11.0581 2.39213L14.1661 5.0314V2.43152C14.1661 2.19517 14.3536 2.00179 14.5828 2.00179H16.5274C16.7566 2.00179 16.9441 2.19517 16.9441 2.43152V7.39134ZM16.9441 17.1713V12.0396C16.9441 11.9107 16.8886 11.7889 16.7948 11.7066L10.2664 6.16303C10.1101 6.03411 9.88784 6.03411 9.73505 6.16303L3.2066 11.7066C3.10937 11.7889 3.05381 11.9107 3.05381 12.0396V17.1713C3.05381 17.6476 3.42538 18.0308 3.88723 18.0308H7.91542C8.14461 18.0308 8.33213 17.8374 8.33213 17.6011V13.5902C8.33213 13.3539 8.51965 13.1605 8.74884 13.1605H11.2491C11.4783 13.1605 11.6658 13.3539 11.6658 13.5902V17.6011C11.6658 17.8374 11.8533 18.0308 12.0825 18.0308H16.1107C16.5726 18.0308 16.9441 17.6476 16.9441 17.1713Z" fill="currentcolor"/>
</svg>
