<svg width="20" height="20" viewBox="0 0 20 20" fill="none" xmlns="http://www.w3.org/2000/svg">
<path fill-rule="evenodd" clip-rule="evenodd" d="M16.375 1.875H16.5312C16.7901 1.875 17 1.66512 17 1.40625V0.46875C17 0.209883 16.7901 0 16.5312 0H2.46875C2.20988 0 2 0.209883 2 0.46875V1.40625C2 1.66512 2.20988 1.875 2.46875 1.875H2.625C2.625 5.02203 3.88234 8.35184 6.42109 10C3.87105 11.6555 2.625 14.9961 2.625 18.125H2.46875C2.20988 18.125 2 18.3349 2 18.5938V19.5312C2 19.7901 2.20988 20 2.46875 20H16.5312C16.7901 20 17 19.7901 17 19.5312V18.5938C17 18.3349 16.7901 18.125 16.5312 18.125H16.375C16.375 14.978 15.1177 11.6482 12.5789 10C15.129 8.34449 16.375 5.00391 16.375 1.875ZM14.5 1.875C14.5 5.84453 12.2614 9.0625 9.5 9.0625C6.73855 9.0625 4.5 5.84457 4.5 1.875H14.5ZM9.5 10.9375C6.73859 10.9375 4.5 14.1555 4.5 18.125H14.5C14.5 14.1555 12.2614 10.9375 9.5 10.9375Z" fill="currentcolor"/>
</svg>
