<svg width="20" height="20" viewBox="0 0 20 20" fill="none" xmlns="http://www.w3.org/2000/svg">
<path fill-rule="evenodd" clip-rule="evenodd" d="M10 0C4.47754 0 0 4.47915 0 10C0 15.5241 4.47754 20 10 20C15.5225 20 20 15.5241 20 10C20 4.47915 15.5225 0 10 0ZM10 4.43548C10.9353 4.43548 11.6935 5.19371 11.6935 6.12903C11.6935 7.06435 10.9353 7.82258 10 7.82258C9.06468 7.82258 8.30645 7.06435 8.30645 6.12903C8.30645 5.19371 9.06468 4.43548 10 4.43548ZM11.7742 15.1613C12.0414 15.1613 12.2581 14.9446 12.2581 14.6774V13.7097C12.2581 13.4425 12.0414 13.2258 11.7742 13.2258H11.2903V9.19355C11.2903 8.92633 11.0737 8.70968 10.8065 8.70968H8.22581C7.95859 8.70968 7.74194 8.92633 7.74194 9.19355V10.1613C7.74194 10.4285 7.95859 10.6452 8.22581 10.6452H8.70968V13.2258H8.22581C7.95859 13.2258 7.74194 13.4425 7.74194 13.7097V14.6774C7.74194 14.9446 7.95859 15.1613 8.22581 15.1613H11.7742Z" fill="currentcolor"/>
</svg>
