<svg width="20" height="20" viewBox="0 0 20 20" fill="none" xmlns="http://www.w3.org/2000/svg">
<path fill-rule="evenodd" clip-rule="evenodd" d="M6.9375 2.8125C6.9375 1.25918 8.19668 0 9.75 0C11.3033 0 12.5625 1.25918 12.5625 2.8125C12.5625 4.36582 11.3033 5.625 9.75 5.625C8.19668 5.625 6.9375 4.36582 6.9375 2.8125ZM7.5625 16.5714H6.78125C6.34977 16.5714 6 16.9212 6 17.3527V19.2188C6 19.6502 6.34977 20 6.78125 20H12.7188C13.1502 20 13.5 19.6502 13.5 19.2188V17.3527C13.5 16.9212 13.1502 16.5714 12.7188 16.5714H11.9375V8.28125C11.9375 7.84977 11.5877 7.5 11.1562 7.5H6.78125C6.34977 7.5 6 7.84977 6 8.28125V10.1473C6 10.5788 6.34977 10.9286 6.78125 10.9286H7.5625V16.5714Z" fill="currentcolor"/>
</svg>
