<svg width="20" height="20" viewBox="0 0 20 20" fill="none" xmlns="http://www.w3.org/2000/svg">
<path d="M11.8581 15.5714H10.5736L12.9298 3.42857H14.4752C14.7657 3.42857 15.0155 3.22279 15.0711 2.93766L15.3079 1.72337C15.381 1.3485 15.094 1 14.712 1H8.65072C8.36022 1 8.11042 1.20578 8.05481 1.49091L7.81795 2.7052C7.74482 3.08007 8.03189 3.42857 8.41386 3.42857H9.69819L7.3421 15.5714H5.84431C5.55384 15.5714 5.30405 15.7772 5.2484 16.0623L5.01143 17.2766C4.93831 17.6515 5.22537 18 5.60738 18H11.6211C11.9116 18 12.1614 17.7943 12.217 17.5092L12.454 16.2949C12.5271 15.92 12.24 15.5714 11.8581 15.5714Z" fill="currentcolor"/>
</svg>
