<svg width="20" height="20" viewBox="0 0 20 20" fill="none" xmlns="http://www.w3.org/2000/svg">
<path fill-rule="evenodd" clip-rule="evenodd" d="M13.125 13.75C16.922 13.75 20 10.672 20 6.87504C20 3.06684 16.9331 -3.90621e-05 13.125 3.73147e-10C9.32801 3.90629e-05 6.25 3.07805 6.25 6.875C6.25 7.62777 6.37141 8.35211 6.59496 9.03L0.27457 15.3504C0.0987891 15.5262 0 15.7647 0 16.0133V19.0625C0 19.5803 0.419727 20 0.9375 20H5.3125C5.83027 20 6.25 19.5803 6.25 19.0625V17.5H7.8125C8.33027 17.5 8.75 17.0803 8.75 16.5625V15H10.204C10.4718 15 10.7268 14.8855 10.9047 14.6854L11.8427 13.6301C12.2582 13.7085 12.6867 13.75 13.125 13.75ZM15 6.875C13.9645 6.875 13.125 6.03555 13.125 5C13.125 3.96445 13.9645 3.125 15 3.125C16.0355 3.125 16.875 3.96445 16.875 5C16.875 6.03555 16.0355 6.875 15 6.875Z" fill="currentcolor"/>
</svg>
