<svg width="20" height="20" viewBox="0 0 20 20" fill="none" xmlns="http://www.w3.org/2000/svg">
<path fill-rule="evenodd" clip-rule="evenodd" d="M9.8667 1.73631C12.1819 -0.578925 15.9487 -0.578613 18.2636 1.73631C20.5788 4.05115 20.5788 7.81833 18.2635 10.1331L16.8141 11.5826C16.4297 11.967 15.7678 11.7115 15.7479 11.1683C15.7226 10.476 15.5985 9.78052 15.3694 9.10888C15.2918 8.88146 15.3472 8.6299 15.5172 8.45997L16.0284 7.94876C17.1232 6.854 17.1575 5.07142 16.0735 3.96595C14.9788 2.84959 13.1795 2.84295 12.0764 3.94603L9.45143 6.57064C8.35022 7.67185 8.35483 9.45177 9.45143 10.5484C9.596 10.6927 9.74162 10.8048 9.85537 10.8831C10.0185 10.9951 10.1192 11.1777 10.1267 11.3755C10.1422 11.7883 9.99596 12.2136 9.66979 12.5398L8.84737 13.3623C8.63174 13.5779 8.29338 13.6044 8.0433 13.4299C7.75692 13.2299 7.48869 13.0052 7.2417 12.7582C4.90783 10.4219 4.9399 6.67623 7.22764 4.37576C7.23194 4.37107 7.23701 4.36599 7.2417 4.36131L9.8667 1.73631ZM12.7724 15.6243C15.0601 13.3238 15.0922 9.57814 12.7583 7.24185C12.5113 6.99486 12.2431 6.77007 11.9567 6.57009C11.7066 6.39556 11.3683 6.42205 11.1526 6.63771L10.3302 7.46017C10.004 7.78634 9.85776 8.21169 9.87323 8.62447C9.88081 8.82226 9.98142 9.00484 10.1446 9.11689C10.2583 9.19521 10.404 9.30732 10.5485 9.45161C11.6451 10.5482 11.6497 12.3281 10.5485 13.4293L7.92354 16.054C6.82045 17.157 5.02115 17.1504 3.92647 16.034C2.84248 14.9286 2.87682 13.146 3.97158 12.0512L4.48279 11.54C4.65272 11.3701 4.70815 11.1185 4.63057 10.8911C4.4015 10.2195 4.27736 9.52396 4.25205 8.83169C4.23221 8.28849 3.57025 8.03302 3.18588 8.4174L1.73643 9.86685C-0.578809 12.1817 -0.578809 15.9489 1.73643 18.2637C4.05131 20.5786 7.81807 20.5789 10.1333 18.2637L12.7583 15.6387C12.763 15.634 12.7681 15.629 12.7724 15.6243Z" fill="currentcolor"/>
</svg>
