<svg width="20" height="20" viewBox="0 0 20 20" fill="none" xmlns="http://www.w3.org/2000/svg">
<path fill-rule="evenodd" clip-rule="evenodd" d="M0.275337 16.0512L3.9504 19.7266C4.31752 20.0898 4.91115 20.0898 5.27436 19.7266L19.7247 5.27488C20.0918 4.91163 20.0918 4.31794 19.7247 3.95079L16.0496 0.275364C15.6864 -0.0917879 15.0928 -0.0917879 14.7256 0.275364L0.275337 14.7271C-0.0917789 15.0903 -0.0917789 15.684 0.275337 16.0512ZM13.7805 8.12616L11.8746 6.22009L15.3857 2.70872L17.2915 4.61478L13.7805 8.12616ZM1.74382 0.728445L1.43919 1.34557L0.755729 1.44712C0.634659 1.46665 0.583888 1.61508 0.673714 1.70101L1.16581 2.18143L1.04864 2.86105C1.02911 2.98213 1.15799 3.07587 1.26735 3.01728L1.8766 2.697L2.48586 3.01728C2.59521 3.07587 2.72409 2.98213 2.70457 2.86105L2.5874 2.18143L3.07949 1.70101C3.16932 1.61508 3.11855 1.46275 2.99748 1.44712L2.31402 1.34948L2.00939 0.732351C1.95471 0.615175 1.79849 0.615175 1.74382 0.728445ZM8.93772 1.34557L9.24235 0.728445C9.29703 0.615175 9.45325 0.615175 9.50793 0.732351L9.81255 1.34948L10.496 1.44712C10.6171 1.46275 10.6679 1.61508 10.578 1.70101L10.0859 2.18143L10.2031 2.86105C10.2226 2.98213 10.0937 3.07587 9.9844 3.01728L9.37514 2.697L8.76588 3.01728C8.65653 3.07587 8.52765 2.98213 8.54718 2.86105L8.66434 2.18143L8.17225 1.70101C8.08242 1.61508 8.13319 1.46665 8.25426 1.44712L8.93772 1.34557ZM4.96978 2.46655L5.42673 1.53696C5.50874 1.37291 5.74698 1.37291 5.82509 1.53305L6.28203 2.46265L7.30527 2.61107C7.48882 2.63841 7.56303 2.86495 7.43024 2.99385L6.6882 3.71643L6.86395 4.73586C6.89519 4.91944 6.70382 5.06005 6.53979 4.97412L5.62591 4.4937L4.71202 4.97803C4.54799 5.06396 4.35662 4.92334 4.38787 4.73977L4.56361 3.72034L3.82157 2.99775C3.68878 2.86886 3.76299 2.64232 3.94655 2.61498L4.96978 2.46655ZM17.686 10.0752L17.9906 9.45806C18.0453 9.3487 18.2015 9.3487 18.2562 9.45806L18.5608 10.0752L19.2443 10.1728C19.3654 10.1885 19.4161 10.3408 19.3263 10.4267L18.8342 10.9071L18.9514 11.5868C18.9709 11.7078 18.842 11.8016 18.7327 11.743L18.1234 11.4227L17.5142 11.743C17.4048 11.8016 17.2759 11.7078 17.2955 11.5868L17.4126 10.9071L16.9205 10.4267C16.8307 10.3408 16.8815 10.1924 17.0026 10.1728L17.686 10.0752Z" fill="currentcolor"/>
</svg>
