<svg width="20" height="20" viewBox="0 0 20 20" fill="none" xmlns="http://www.w3.org/2000/svg">
<path d="M17.0774 4.34132H16.5379L17.2606 2.53647C17.5049 1.94097 17.1588 1.28132 16.4971 1.0706C15.8355 0.850725 15.1025 1.16222 14.8582 1.75773L13.8199 4.34132H3.03972C1.64511 4.34132 0.667866 5.56898 1.10559 6.75084L2.93792 11.6707L1.11577 16.5905C0.667866 17.7723 1.65529 19 3.03972 19H17.0672C18.4516 19 19.4391 17.7723 19.0013 16.5905L17.1894 11.6707L19.0013 6.75084C19.4391 5.56898 18.4618 4.34132 17.0774 4.34132ZM13.1175 12.5868H11.0816V14.4192C11.0816 14.9231 10.6235 15.3353 10.0637 15.3353C9.50378 15.3353 9.0457 14.9231 9.0457 14.4192V12.5868H7.00977C6.44989 12.5868 5.99181 12.1746 5.99181 11.6707C5.99181 11.1668 6.44989 10.7545 7.00977 10.7545H9.0457V8.92215C9.0457 8.41825 9.50378 8.00598 10.0637 8.00598C10.6235 8.00598 11.0816 8.41825 11.0816 8.92215V10.7545H13.1175C13.6774 10.7545 14.1355 11.1668 14.1355 11.6707C14.1355 12.1746 13.6774 12.5868 13.1175 12.5868Z" fill="#333333"/>
</svg>
