<svg width="20" height="20" viewBox="0 0 20 20" fill="none" xmlns="http://www.w3.org/2000/svg">
<path fill-rule="evenodd" clip-rule="evenodd" d="M0 9.90323C0 8.29839 1.29839 7 2.90323 7C4.50806 7 5.80645 8.29839 5.80645 9.90323C5.80645 11.5081 4.50806 12.8065 2.90323 12.8065C1.29839 12.8065 0 11.5081 0 9.90323ZM12.9032 9.90323C12.9032 11.5081 11.6048 12.8065 10 12.8065C8.39516 12.8065 7.09677 11.5081 7.09677 9.90323C7.09677 8.29839 8.39516 7 10 7C11.6048 7 12.9032 8.29839 12.9032 9.90323ZM17.0968 7C15.4919 7 14.1935 8.29839 14.1935 9.90323C14.1935 11.5081 15.4919 12.8065 17.0968 12.8065C18.7016 12.8065 20 11.5081 20 9.90323C20 8.29839 18.7016 7 17.0968 7Z" fill="currentcolor"/>
</svg>
