<svg width="20" height="20" viewBox="0 0 20 20" fill="none" xmlns="http://www.w3.org/2000/svg">
<path fill-rule="evenodd" clip-rule="evenodd" d="M7 2.79435C7 4.33901 8.2497 5.58871 9.79435 5.58871C11.339 5.58871 12.5887 4.33901 12.5887 2.79435C12.5887 1.2497 11.339 0 9.79435 0C8.2497 0 7 1.2497 7 2.79435ZM9.79435 6.83065C11.339 6.83065 12.5887 8.08034 12.5887 9.625C12.5887 11.1697 11.339 12.4194 9.79435 12.4194C8.2497 12.4194 7 11.1697 7 9.625C7 8.08034 8.2497 6.83065 9.79435 6.83065ZM9.79435 19.25C8.2497 19.25 7 18.0003 7 16.4556C7 14.911 8.2497 13.6613 9.79435 13.6613C11.339 13.6613 12.5887 14.911 12.5887 16.4556C12.5887 18.0003 11.339 19.25 9.79435 19.25Z" fill="currentcolor"/>
</svg>
