<svg width="20" height="20" viewBox="0 0 20 20" fill="none" xmlns="http://www.w3.org/2000/svg">
<path fill-rule="evenodd" clip-rule="evenodd" d="M18.8424 12.3128C19.2911 13.0627 18.7279 14 17.8319 14H6.16799C5.27021 14 4.70968 13.0612 5.15743 12.3128L10.9895 2.56215C11.4383 1.81194 12.5625 1.8133 13.0106 2.56215L18.8424 12.3128ZM11.4444 9.5C11.2986 9.5 11.1781 9.37545 11.1702 9.21635L11.0004 5.81635C10.9918 5.6445 11.1171 5.5 11.2746 5.5H12.7253C12.8829 5.5 13.0082 5.6445 12.9996 5.81635L12.8298 9.21635C12.8219 9.37545 12.7014 9.5 12.5556 9.5H11.4444ZM11 11.5C11 10.9477 11.4477 10.5 12 10.5C12.5523 10.5 13 10.9477 13 11.5C13 12.0523 12.5523 12.5 12 12.5C11.4477 12.5 11 12.0523 11 11.5ZM3.6758 12.1081L7.97999 5.11374C7.51333 4.41358 6.42842 4.42843 5.98945 5.16212L0.157434 14.9128C-0.290323 15.6612 0.270212 16.6 1.16799 16.6H12.8319C13.6329 16.6 14.1679 15.8508 13.9518 15.1562H5.37912C3.81448 15.1562 2.85578 13.4406 3.6758 12.1081Z" fill="currentcolor"/>
</svg>
