<svg width="20" height="20" viewBox="0 0 20 20" fill="none" xmlns="http://www.w3.org/2000/svg">
<path fill-rule="evenodd" clip-rule="evenodd" d="M0 10C0 15.5357 4.46429 20 10 20C15.5357 20 20 15.5357 20 10C20 4.46429 15.5357 0 10 0C4.46429 0 0 4.46429 0 10ZM2.5 10C2.5 5.89286 5.89286 2.5 10 2.5C14.1667 2.5 17.5 5.89286 17.5 10C17.5 14.1071 14.1071 17.5 10 17.5C5.89286 17.5 2.5 14.1071 2.5 10ZM5.29763 13.3333C5.29763 13.869 5.7143 14.2857 6.25001 14.2857C6.78573 14.2857 7.2024 13.869 7.2024 13.3929V6.66667C7.2024 6.13095 6.78573 5.71428 6.25001 5.71428C5.7143 5.71428 5.29763 6.13095 5.29763 6.66667V13.3333ZM9.99997 14.2857C9.46426 14.2857 9.04759 13.869 9.04759 13.3333V6.66667C9.04759 6.13095 9.46426 5.71428 9.99997 5.71428C10.5357 5.71428 10.9524 6.13095 10.9524 6.66667V13.3929C10.9524 13.869 10.5357 14.2857 9.99997 14.2857ZM12.7976 13.3333C12.7976 13.869 13.2143 14.2857 13.75 14.2857C14.2857 14.2857 14.7024 13.869 14.7024 13.3929V6.66667C14.7024 6.13095 14.2857 5.71428 13.75 5.71428C13.2143 5.71428 12.7976 6.13095 12.7976 6.66667V13.3333Z" fill="currentcolor"/>
</svg>
