<svg width="20" height="20" viewBox="0 0 20 20" fill="none" xmlns="http://www.w3.org/2000/svg">
<path fill-rule="evenodd" clip-rule="evenodd" d="M0 10C0 15.5357 4.46429 20 10 20C15.5357 20 20 15.5357 20 10C20 4.46429 15.5357 0 10 0C4.46429 0 0 4.46429 0 10ZM2.5 10C2.5 5.89286 5.89286 2.5 10 2.5C14.1667 2.5 17.5 5.89286 17.5 10C17.5 14.1071 14.1071 17.5 10 17.5C5.89286 17.5 2.5 14.1071 2.5 10ZM9.04759 13.3333C9.04759 13.869 9.46426 14.2857 9.99997 14.2857C10.5357 14.2857 10.9524 13.869 10.9524 13.3929V6.66667C10.9524 6.13095 10.5357 5.71429 9.99997 5.71429C9.46426 5.71429 9.04759 6.13095 9.04759 6.66667V13.3333Z" fill="currentcolor"/>
</svg>
