<svg width="20" height="20" viewBox="0 0 20 20" fill="none" xmlns="http://www.w3.org/2000/svg">
<path fill-rule="evenodd" clip-rule="evenodd" d="M10 20C4.46429 20 0 15.5357 0 10C0 4.46429 4.46429 0 10 0C15.5357 0 20 4.46429 20 10C20 15.5357 15.5357 20 10 20ZM10 2.5C5.89286 2.5 2.5 5.89286 2.5 10C2.5 14.1071 5.89286 17.5 10 17.5C14.1071 17.5 17.5 14.1071 17.5 10C17.5 5.89286 14.1667 2.5 10 2.5ZM8.15475 14.2857C7.61903 14.2857 7.20237 13.869 7.20237 13.3333V6.66667C7.20237 6.13095 7.61903 5.71428 8.15475 5.71428C8.69046 5.71428 9.10713 6.13095 9.10713 6.66667V13.3929C9.0476 13.869 8.63094 14.2857 8.15475 14.2857ZM10.9524 13.3333C10.9524 13.869 11.3691 14.2857 11.9048 14.2857C12.381 14.2857 12.7976 13.869 12.8572 13.3929V6.66667C12.8572 6.13095 12.4405 5.71428 11.9048 5.71428C11.3691 5.71428 10.9524 6.13095 10.9524 6.66667V13.3333Z" fill="currentcolor"/>
</svg>
