<svg width="20" height="20" viewBox="0 0 20 20" fill="none" xmlns="http://www.w3.org/2000/svg">
<path fill-rule="evenodd" clip-rule="evenodd" d="M18.7 7.59999H12.6352C12.0012 6.81872 11.2042 6.18534 10.3 5.74419V4.45L11.38 3.64C11.4555 3.58334 11.5 3.49443 11.5 3.4V1.3C11.5 1.13432 11.3656 1 11.2 1H9.99997C9.9204 1 9.84412 1.03165 9.78787 1.0879L9.39997 1.4758L9.01207 1.0879C8.95582 1.03165 8.87954 1 8.79997 1H6.99999C6.92042 1 6.84414 1.03165 6.78789 1.0879L6.4 1.4758L6.0121 1.0879C5.95585 1.03165 5.87957 1 5.8 1H4.6C4.43432 1 4.3 1.13432 4.3 1.3V3.4C4.3 3.49443 4.34447 3.58334 4.42 3.64L5.49999 4.45V5.74719C3.22899 6.8461 1 9.79783 1 13.5835C1 17.0257 3.5149 19 7.89999 19C8.61179 19.0025 9.32227 18.9395 10.0225 18.8116C10.068 18.9251 10.1777 18.9995 10.3 19H18.7C18.8657 19 19 18.8657 19 18.7V7.89999C19 7.73432 18.8657 7.59999 18.7 7.59999ZM4.89999 3.25V1.6H5.6758L6.1879 2.1121C6.30505 2.22921 6.49495 2.22921 6.61209 2.1121L7.12419 1.6H8.67577L9.18787 2.1121C9.30502 2.22921 9.49492 2.22921 9.61207 2.1121L10.1242 1.6H10.9V3.25L9.90007 3.99999H5.8999L4.89999 3.25ZM9.69997 4.6V5.49999H6.1V4.6H9.69997ZM9.99997 14.9419C8.59619 16.1042 6.51599 15.9085 5.35359 14.5048C4.19125 13.101 4.38692 11.0208 5.7907 9.85835C7.01165 8.84742 8.77897 8.84742 9.99997 9.85835V14.9419ZM9.99997 7.89999V9.11713C8.18698 7.95422 5.77453 8.48127 4.61166 10.2943C3.44878 12.1072 3.97581 14.5197 5.78882 15.6826C7.07192 16.5056 8.71694 16.5056 10 15.6826V18.2056C9.30794 18.338 8.60467 18.4031 7.90003 18.4C6.00583 18.4 1.60004 17.9308 1.60004 13.5835C1.60004 10.7134 3.32023 7.1422 6.20023 6.09999H9.60194C10.4506 6.42212 11.2136 6.93538 11.8319 7.59999H10.3C10.1343 7.59999 9.99997 7.73432 9.99997 7.89999ZM18.4 18.4H10.6V10.6H18.4V18.4ZM18.4 9.99995H10.6V8.20002H18.4V9.99995ZM8.32497 12.2253L7.66346 12.0054C7.44589 11.9329 7.29915 11.7292 7.29926 11.4999C7.29926 11.1685 7.56788 10.8999 7.89926 10.8999C8.23065 10.8999 8.49927 11.1685 8.49927 11.4999H9.09929C9.09719 10.9544 8.72751 10.4789 8.19927 10.3426V9.69995H7.59926V10.3426C7.07107 10.4789 6.70133 10.9544 6.69927 11.4999C6.69889 11.9875 7.01089 12.4205 7.47356 12.5745L8.13506 12.7944C8.35264 12.8669 8.49936 13.0705 8.49927 13.2999C8.49927 13.6313 8.23065 13.8999 7.89926 13.8999C7.56788 13.8999 7.29926 13.6313 7.29926 13.2999H6.69927C6.70133 13.8454 7.07107 14.3209 7.59926 14.4573V15.0999H8.19927V14.4573C8.72751 14.3209 9.09719 13.8454 9.09929 13.2999C9.09967 12.8123 8.78766 12.3793 8.32497 12.2253ZM11.4993 11.2H12.6993C12.865 11.2 12.9993 11.3343 12.9993 11.5V12.6999C12.9993 12.8656 12.865 12.9999 12.6993 12.9999H11.4993C11.3336 12.9999 11.1993 12.8656 11.1993 12.6999V11.5C11.1993 11.3343 11.3336 11.2 11.4993 11.2ZM11.7993 12.3999H12.3993V11.8H11.7993V12.3999ZM15.0993 11.2H13.8993C13.7337 11.2 13.5993 11.3343 13.5993 11.5V12.6999C13.5993 12.8656 13.7337 12.9999 13.8993 12.9999H15.0993C15.265 12.9999 15.3994 12.8656 15.3994 12.6999V11.5C15.3994 11.3343 15.265 11.2 15.0993 11.2ZM14.7993 12.3999H14.1993V11.8H14.7993V12.3999ZM16.2993 11.2H17.4993C17.665 11.2 17.7993 11.3343 17.7993 11.5V12.6999C17.7993 12.8656 17.665 12.9999 17.4993 12.9999H16.2993C16.1336 12.9999 15.9993 12.8656 15.9993 12.6999V11.5C15.9993 11.3343 16.1336 11.2 16.2993 11.2ZM16.5993 12.3999H17.1993V11.8H16.5993V12.3999ZM12.6993 13.6H11.4993C11.3336 13.6 11.1993 13.7344 11.1993 13.9V15.1C11.1993 15.2657 11.3336 15.4 11.4993 15.4H12.6993C12.865 15.4 12.9993 15.2657 12.9993 15.1V13.9C12.9993 13.7344 12.865 13.6 12.6993 13.6ZM12.3993 14.8H11.7993V14.2H12.3993V14.8ZM13.8993 13.6H15.0993C15.265 13.6 15.3994 13.7344 15.3994 13.9V15.1C15.3994 15.2657 15.265 15.4 15.0993 15.4H13.8993C13.7337 15.4 13.5993 15.2657 13.5993 15.1V13.9C13.5993 13.7344 13.7337 13.6 13.8993 13.6ZM14.1993 14.8H14.7993V14.2H14.1993V14.8ZM12.6993 16H11.4993C11.3336 16 11.1993 16.1344 11.1993 16.3V17.5001C11.1993 17.6657 11.3336 17.8001 11.4993 17.8001H12.6993C12.865 17.8001 12.9993 17.6657 12.9993 17.5001V16.3C12.9993 16.1344 12.865 16 12.6993 16ZM12.3993 17.2001H11.7993V16.6H12.3993V17.2001ZM13.8993 16H15.0993C15.265 16 15.3994 16.1344 15.3994 16.3V17.5001C15.3994 17.6657 15.265 17.8001 15.0993 17.8001H13.8993C13.7337 17.8001 13.5993 17.6657 13.5993 17.5001V16.3C13.5993 16.1344 13.7337 16 13.8993 16ZM14.1993 17.2001H14.7993V16.6H14.1993V17.2001ZM17.4993 13.6H16.2993C16.1336 13.6 15.9993 13.7344 15.9993 13.9V17.5001C15.9993 17.6657 16.1336 17.8001 16.2993 17.8001H17.4993C17.665 17.8001 17.7993 17.6657 17.7993 17.5001V13.9C17.7993 13.7344 17.665 13.6 17.4993 13.6ZM17.1993 17.2001H16.5993V14.2H17.1993V17.2001ZM17.1993 8.79995H17.7993V9.39995H17.1993V8.79995ZM16.5993 8.79995H15.9993V9.39995H16.5993V8.79995ZM14.7993 8.79995H15.3993V9.39995H14.7993V8.79995Z" fill="#333333"/>
</svg>
