<svg width="20" height="20" viewBox="0 0 20 20" fill="none" xmlns="http://www.w3.org/2000/svg">
<path fill-rule="evenodd" clip-rule="evenodd" d="M2.82143 19H6.46429C7.46987 19 8.28571 18.1842 8.28571 17.1786V3.82143C8.28571 2.81585 7.46987 2 6.46429 2H2.82143C1.81585 2 1 2.81585 1 3.82143V17.1786C1 18.1842 1.81585 19 2.82143 19ZM18 3.82143V17.1786C18 18.1842 17.1842 19 16.1786 19H12.5357C11.5301 19 10.7143 18.1842 10.7143 17.1786V3.82143C10.7143 2.81585 11.5301 2 12.5357 2H16.1786C17.1842 2 18 2.81585 18 3.82143Z" fill="currentcolor"/>
</svg>
