<svg width="20" height="20" viewBox="0 0 20 20" fill="none" xmlns="http://www.w3.org/2000/svg">
<path fill-rule="evenodd" clip-rule="evenodd" d="M20 16.625C20 17.6602 19.1602 18.5 18.125 18.5H1.875C0.839844 18.5 0 17.6602 0 16.625V5.375C0 4.33984 0.839844 3.5 1.875 3.5H5.3125L5.79297 2.21484C6.06641 1.48438 6.76562 1 7.54688 1H12.4492C13.2305 1 13.9297 1.48438 14.2031 2.21484L14.6875 3.5H18.125C19.1602 3.5 20 4.33984 20 5.375V16.625ZM14.6875 11C14.6875 8.41406 12.5859 6.3125 10 6.3125C7.41406 6.3125 5.3125 8.41406 5.3125 11C5.3125 13.5859 7.41406 15.6875 10 15.6875C12.5859 15.6875 14.6875 13.5859 14.6875 11ZM10 14.4375C11.8945 14.4375 13.4375 12.8945 13.4375 11C13.4375 9.10547 11.8945 7.5625 10 7.5625C8.10547 7.5625 6.5625 9.10547 6.5625 11C6.5625 12.8945 8.10547 14.4375 10 14.4375Z" fill="currentcolor"/>
</svg>
