<svg width="20" height="20" viewBox="0 0 20 20" fill="none" xmlns="http://www.w3.org/2000/svg">
<path d="M19 10.9496V8.05045C19 7.54576 18.594 7.13973 18.0893 7.13973H12.8603V1.91071C12.8603 1.40603 12.4542 1 11.9496 1H9.05045C8.54576 1 8.13973 1.40603 8.13973 1.91071V7.13973H2.91071C2.40603 7.13973 2 7.54576 2 8.05045V10.9496C2 11.4542 2.40603 11.8603 2.91071 11.8603H8.13973V17.0893C8.13973 17.594 8.54576 18 9.05045 18H11.9496C12.4542 18 12.8603 17.594 12.8603 17.0893V11.8603H18.0893C18.594 11.8603 19 11.4542 19 10.9496Z" fill="currentcolor"/>
</svg>
