<svg width="21" height="20" viewBox="0 0 21 20" fill="none" xmlns="http://www.w3.org/2000/svg">
<path fill-rule="evenodd" clip-rule="evenodd" d="M12.1774 0.931451V10.246C12.1774 10.7621 11.7622 11.1774 11.246 11.1774H10.004C9.48786 11.1774 9.07259 10.7621 9.07259 10.246V0.931451C9.07259 0.415272 9.48786 0 10.004 0H11.246C11.7622 0 12.1774 0.415272 12.1774 0.931451ZM20.25 9.93548C20.25 6.70257 18.6588 3.84612 16.2137 2.09965C15.7635 1.77752 15.1348 1.92112 14.8631 2.40237L14.2499 3.49294C14.0209 3.89657 14.1257 4.41275 14.5022 4.69219C16.1865 5.94188 17.1335 7.88241 17.1452 9.89279C17.1684 13.5759 14.18 16.4556 10.625 16.4556C6.99622 16.4556 4.10096 13.5138 4.10484 9.9316C4.10484 7.78538 5.13332 5.89143 6.74396 4.69607C7.12042 4.41663 7.22909 3.90045 7.00011 3.49294L6.3869 2.40237C6.11523 1.91724 5.48262 1.7814 5.02853 2.10353C2.58736 3.85388 0.996126 6.71809 1.00001 9.951C1.00777 15.2525 5.34678 19.5721 10.6444 19.5605C15.9498 19.5488 20.25 15.2448 20.25 9.93548Z" fill="currentcolor"/>
</svg>
