<svg width="20" height="20" viewBox="0 0 20 20" fill="none" xmlns="http://www.w3.org/2000/svg">
<path fill-rule="evenodd" clip-rule="evenodd" d="M13.875 2.5C15.6016 2.5 17 3.89844 17 5.625C17 7 16.1094 8.16797 14.875 8.58984C14.8555 9.6875 14.5781 10.5625 14.0312 11.2422C12.9297 12.6094 11.0625 12.7852 9.41406 12.9375L9.38755 12.94H9.38754C8.39352 13.0328 7.45927 13.12 6.83203 13.4375C6.55469 13.5781 6.37109 13.7578 6.25 13.9609C7.42188 14.4102 8.25 15.5469 8.25 16.875C8.25 18.6016 6.85156 20 5.125 20C3.39844 20 2 18.6016 2 16.875C2 15.4766 2.91797 14.293 4.1875 13.8906V6.10547C2.91797 5.70703 2 4.52344 2 3.125C2 1.39844 3.39844 0 5.125 0C6.85156 0 8.25 1.39844 8.25 3.125C8.25 4.52344 7.33203 5.70703 6.0625 6.10547V11.7305C6.99609 11.2812 8.13672 11.1719 9.23828 11.0703C10.6406 10.9414 11.9648 10.8164 12.5664 10.0664C12.832 9.73828 12.9727 9.25391 12.9961 8.625C11.6992 8.24609 10.75 7.04688 10.75 5.625C10.75 3.89844 12.1484 2.5 13.875 2.5ZM5.75 3.125C5.75 2.78125 5.46875 2.5 5.125 2.5C4.78125 2.5 4.5 2.78125 4.5 3.125C4.5 3.46875 4.78125 3.75 5.125 3.75C5.46875 3.75 5.75 3.46875 5.75 3.125ZM5.125 17.5C4.78125 17.5 4.5 17.2188 4.5 16.875C4.5 16.5312 4.78125 16.25 5.125 16.25C5.46875 16.25 5.75 16.5312 5.75 16.875C5.75 17.2188 5.46875 17.5 5.125 17.5ZM14.5 5.625C14.5 5.28125 14.2188 5 13.875 5C13.5312 5 13.25 5.28125 13.25 5.625C13.25 5.96875 13.5312 6.25 13.875 6.25C14.2188 6.25 14.5 5.96875 14.5 5.625Z" fill="currentcolor"/>
</svg>
