<svg width="20" height="20" viewBox="0 0 20 20" fill="none" xmlns="http://www.w3.org/2000/svg">
<path fill-rule="evenodd" clip-rule="evenodd" d="M0 9.625C0 4.31118 4.30963 0 9.625 0C14.9404 0 19.25 4.31118 19.25 9.625C19.25 14.9419 14.9404 19.25 9.625 19.25C4.30963 19.25 0 14.9419 0 9.625ZM1.8629 9.625C1.8629 13.9162 5.3352 17.3871 9.625 17.3871C13.9162 17.3871 17.3871 13.9147 17.3871 9.625C17.3871 5.33532 13.9132 1.8629 9.625 1.8629C5.33535 1.8629 1.8629 5.33664 1.8629 9.625ZM13.7872 7.48266C13.7872 9.10112 12.7 9.7285 11.878 10.2029C11.3783 10.4913 10.9765 10.7231 10.9765 11.0867V11.3327C10.9765 11.5899 10.768 11.7984 10.5108 11.7984H8.73919C8.48199 11.7984 8.27346 11.5899 8.27346 11.3327V10.9966C8.27346 9.64253 9.27547 9.08179 10.0625 8.64134L10.12 8.60914C10.8016 8.22705 11.2193 7.96717 11.2193 7.46116C11.2193 6.79183 10.3655 6.34757 9.67526 6.34757C8.77528 6.34757 8.35982 6.77359 7.7758 7.51068C7.61834 7.70939 7.33103 7.7463 7.12898 7.59312L6.04912 6.77429C5.85091 6.62402 5.80651 6.34482 5.9465 6.13924C6.86348 4.79275 8.03144 4.03629 9.84987 4.03629C11.7543 4.03629 13.7872 5.52289 13.7872 7.48266ZM9.625 15.6018C10.5238 15.6018 11.255 14.8706 11.255 13.9718C11.255 13.073 10.5238 12.3417 9.625 12.3417C8.72619 12.3417 7.99496 13.073 7.99496 13.9718C7.99496 14.8706 8.72619 15.6018 9.625 15.6018Z" fill="currentcolor"/>
</svg>
