<svg width="20" height="21" viewBox="0 0 20 21" fill="none" xmlns="http://www.w3.org/2000/svg">
<path d="M8.51559 1.38196e-05C10.7869 0.00409245 12.8492 0.899129 14.3717 2.35414L15.5958 1.13007C16.114 0.611843 17 0.978851 17 1.7117V6.30647C17 6.76077 16.6317 7.12905 16.1774 7.12905H11.5827C10.8498 7.12905 10.4828 6.24302 11.001 5.7248L12.4319 4.29385C11.3741 3.30336 10.0053 2.7547 8.55107 2.74216C5.3842 2.7148 2.71476 5.27766 2.74214 8.54964C2.7495 9.4291 2.9568 10.2685 3.32328 11.0199L1.309 13.0341C0.479879 11.7219 1.14443e-05 10.167 2.31012e-10 8.50008C-3.4332e-05 3.81106 3.82658 -0.00838336 8.51559 1.38196e-05Z" fill="#333333"/>
<path d="M11.4844 20.0341C9.21309 20.03 7.15085 19.135 5.62832 17.68L4.40425 18.9041C3.88602 19.4223 3 19.0553 3 18.3224V13.7277C3 13.2734 3.36828 12.9051 3.82258 12.9051H8.41735C9.1502 12.9051 9.5172 13.7911 8.99901 14.3093L7.56806 15.7403C8.6259 16.7308 9.99471 17.2794 11.4489 17.292C14.6158 17.3193 17.2852 14.7565 17.2579 11.4845C17.2505 10.605 17.0432 9.76567 16.6767 9.01427L18.691 7C19.5201 8.31221 20 9.86709 20 11.5341C20 16.2231 16.1734 20.0425 11.4844 20.0341Z" fill="#333333"/>
</svg>