<svg width="20" height="20" viewBox="0 0 20 20" fill="none" xmlns="http://www.w3.org/2000/svg">
<path fill-rule="evenodd" clip-rule="evenodd" d="M17.9665 5.21651L14.7835 2.03349C14.4419 1.6919 13.9786 1.5 13.4955 1.5H3.32143C2.31547 1.5 1.5 2.31547 1.5 3.32143V16.6786C1.5 17.6845 2.31547 18.5 3.32143 18.5H16.6786C17.6845 18.5 18.5 17.6845 18.5 16.6786V6.50445C18.5 6.02138 18.3081 5.55809 17.9665 5.21651ZM10 16.0714C8.65875 16.0714 7.57143 14.9841 7.57143 13.6429C7.57143 12.3016 8.65875 11.2143 10 11.2143C11.3413 11.2143 12.4286 12.3016 12.4286 13.6429C12.4286 14.9841 11.3413 16.0714 10 16.0714ZM13.6429 8.33036V4.51598C13.6429 4.39521 13.5949 4.27939 13.5095 4.19401L13.3774 4.06195C13.292 3.97654 13.1762 3.92857 13.0554 3.92857H4.38393C4.13246 3.92857 3.92857 4.13246 3.92857 4.38393V8.33036C3.92857 8.58183 4.13246 8.78571 4.38393 8.78571H13.1875C13.439 8.78571 13.6429 8.58183 13.6429 8.33036Z" fill="currentcolor"/>
</svg>
