<svg width="21" height="20" viewBox="0 0 21 20" fill="none" xmlns="http://www.w3.org/2000/svg">
<path fill-rule="evenodd" clip-rule="evenodd" d="M16.8012 13.3723L20.6881 17.2593C21.0507 17.6257 21.0507 18.2183 20.6842 18.5848L19.5809 19.6881C19.2183 20.0546 18.6257 20.0546 18.2593 19.6881L14.3723 15.8012C14.1969 15.6257 14.0994 15.3879 14.0994 15.1384V14.5029C12.7232 15.5789 10.9922 16.2183 9.10916 16.2183C4.62963 16.2183 1 12.5887 1 8.10916C1 3.62963 4.62963 0 9.10916 0C13.5887 0 17.2183 3.62963 17.2183 8.10916C17.2183 9.9922 16.5789 11.7232 15.5029 13.0994H16.1384C16.3879 13.0994 16.6257 13.1969 16.8012 13.3723ZM4.11891 8.10916C4.11891 10.8694 6.35283 13.0994 9.10916 13.0994C11.8694 13.0994 14.0994 10.8655 14.0994 8.10916C14.0994 5.34893 11.8655 3.11891 9.10916 3.11891C6.34893 3.11891 4.11891 5.35283 4.11891 8.10916Z" fill="currentcolor"/>
</svg>
