<svg width="21" height="20" viewBox="0 0 21 20" fill="none" xmlns="http://www.w3.org/2000/svg">
<path fill-rule="evenodd" clip-rule="evenodd" d="M19.9037 12.4072L18.1853 11.4153C18.3579 10.4797 18.3579 9.52033 18.1853 8.58468L19.9037 7.59279C20.1 7.47948 20.191 7.24525 20.1238 7.02888C19.6775 5.5917 18.9153 4.29332 17.9186 3.21494C17.765 3.04863 17.5167 3.01089 17.3206 3.12405L15.6035 4.11578C14.881 3.49675 14.0504 3.01652 13.1535 2.69925V0.716031C13.1535 0.489137 12.9957 0.293048 12.7744 0.243331C11.2937 -0.0892894 9.77991 -0.0729185 8.37039 0.243613C8.14935 0.293281 7.99229 0.489559 7.99229 0.716112V2.69929C7.09538 3.01657 6.26479 3.49681 5.54234 4.11582L3.82524 3.12409C3.62914 3.01093 3.38081 3.04867 3.22718 3.21498C2.23045 4.29336 1.46835 5.59174 1.02198 7.02892C0.954766 7.24533 1.04585 7.47956 1.2421 7.59283L2.96049 8.58472C2.78789 9.52036 2.78789 10.4797 2.96049 11.4153L1.24206 12.4072C1.04581 12.5205 0.954726 12.7548 1.02194 12.9711C1.46831 14.4083 2.23045 15.7067 3.22714 16.7851C3.38077 16.9514 3.6291 16.9891 3.8252 16.8759L5.54229 15.8842C6.26474 16.5032 7.09533 16.9835 7.99225 17.3007V19.284C7.99225 19.5109 8.15003 19.707 8.3714 19.7567C9.85204 20.0893 11.3659 20.0729 12.7754 19.7564C12.9964 19.7067 13.1535 19.5104 13.1535 19.2839V17.3007C14.0504 16.9835 14.881 16.5032 15.6034 15.8842L17.3205 16.8759C17.5166 16.9891 17.765 16.9514 17.9186 16.7851C18.9153 15.7067 19.6774 14.4083 20.1238 12.9711C20.191 12.7547 20.0999 12.5205 19.9037 12.4072ZM10.5729 6.7742C12.3516 6.7742 13.7987 8.22129 13.7987 10C13.7987 11.7787 12.3516 13.2258 10.5729 13.2258C8.79418 13.2258 7.34709 11.7787 7.34709 10C7.34709 8.22129 8.79418 6.7742 10.5729 6.7742Z" fill="currentcolor"/>
</svg>
