<svg width="20" height="20" viewBox="0 0 20 20" fill="none" xmlns="http://www.w3.org/2000/svg">
<path fill-rule="evenodd" clip-rule="evenodd" d="M12.9688 17H16.25C18.3203 17 20 15.3203 20 13.25V5.75C20 3.67969 18.3203 2 16.25 2H12.9688C12.7109 2 12.5 2.21094 12.5 2.46875V4.03125C12.5 4.28906 12.7109 4.5 12.9688 4.5H16.25C16.9414 4.5 17.5 5.05859 17.5 5.75V13.25C17.5 13.9414 16.9414 14.5 16.25 14.5H12.9688C12.7109 14.5 12.5 14.7109 12.5 14.9688V16.5312C12.5 16.7891 12.7109 17 12.9688 17ZM7.85156 2.58594L14.4141 9.14844C14.7773 9.51562 14.7773 10.1094 14.4141 10.4766L7.85156 17.0391C7.26562 17.625 6.25 17.2148 6.25 16.375V12.625H0.9375C0.417969 12.625 0 12.207 0 11.6875V7.9375C0 7.41797 0.417969 7 0.9375 7H6.25V3.25C6.25 2.41016 7.26562 2 7.85156 2.58594Z" fill="currentcolor"/>
</svg>
