<svg width="20" height="20" viewBox="0 0 20 20" fill="none" xmlns="http://www.w3.org/2000/svg">
<path d="M11.8499 10.0999H19.0803C19.2852 10.8168 19.4473 11.5459 19.5653 12.2835C19.5834 12.397 19.4957 12.4999 19.3807 12.4999H17.1999V14.7999C17.1999 16.2358 16.0358 17.3999 14.5999 17.3999H12.3999V19.7999H3.9999V12.972C2.80179 11.8952 1.9723 10.4812 1.69847 8.8999H8.89017C9.64431 9.63186 10.669 10.0866 11.7999 10.0996L11.8499 10.0999Z" fill="currentcolor"/>
<path d="M0.999902 7.6999C0.668531 7.6999 0.399902 7.43127 0.399902 7.0999V5.7999C0.399902 5.46853 0.668531 5.1999 0.999902 5.1999H7.6493C7.61677 5.41182 7.5999 5.62889 7.5999 5.8499C7.5999 6.513 7.75176 7.14062 8.0226 7.6999H0.999902Z" fill="currentcolor"/>
<path d="M9.6999 0.399902C6.736 0.399902 4.14392 1.84441 2.73201 3.9999H8.0226C8.70364 2.59354 10.137 1.61936 11.7999 1.60019L11.8499 1.5999H14.1372C12.8627 0.841187 11.3381 0.399902 9.6999 0.399902Z" fill="currentcolor"/>
<path d="M15.9999 2.8999V8.8999C14.7431 8.8999 13.4832 8.8999 12.2363 8.8999C10.3384 8.8999 8.7999 7.55676 8.7999 5.8999C8.7999 4.24305 10.3384 2.8999 12.2363 2.8999C13.4832 2.8999 14.7431 2.8999 15.9999 2.8999Z" fill="currentcolor"/>
<path d="M18.9999 8.8999H17.1999V2.8999H18.9999C19.3313 2.8999 19.5999 3.16853 19.5999 3.4999V8.2999C19.5999 8.63127 19.3313 8.8999 18.9999 8.8999Z" fill="currentcolor"/>
</svg>
