<svg width="20" height="20" viewBox="0 0 20 20" fill="none" xmlns="http://www.w3.org/2000/svg">
<path fill-rule="evenodd" clip-rule="evenodd" d="M3.82143 19H17.1786C18.1845 19 19 18.1845 19 17.1786V3.82143C19 2.81547 18.1845 2 17.1786 2H3.82143C2.81547 2 2 2.81547 2 3.82143V17.1786C2 18.1845 2.81547 19 3.82143 19ZM16.3936 8.29687L9.41147 15.279C9.17434 15.5161 8.78994 15.5161 8.55282 15.279L4.60639 11.3325C4.3693 11.0955 4.3693 10.711 4.60639 10.4739L5.465 9.61532C5.70213 9.37823 6.08656 9.37823 6.32365 9.61532L8.98214 12.2738L14.6763 6.57964C14.9135 6.34251 15.2979 6.34255 15.535 6.57964L16.3936 7.43825C16.6307 7.67534 16.6307 8.05978 16.3936 8.29687Z" fill="currentcolor"/>
</svg>
