<svg width="20" height="20" viewBox="0 0 20 20" fill="none" xmlns="http://www.w3.org/2000/svg">
<path fill-rule="evenodd" clip-rule="evenodd" d="M3.82143 1H17.1786C18.1842 1 19 1.81585 19 2.82143V16.1786C19 17.1842 18.1842 18 17.1786 18H3.82143C2.81585 18 2 17.1842 2 16.1786V2.82143C2 1.81585 2.81585 1 3.82143 1ZM4.04911 16.1786H16.9509C17.0761 16.1786 17.1786 16.0761 17.1786 15.9509V3.04911C17.1786 2.92388 17.0761 2.82143 16.9509 2.82143H4.04911C3.92388 2.82143 3.82143 2.92388 3.82143 3.04911V15.9509C3.82143 16.0761 3.92388 16.1786 4.04911 16.1786Z" fill="currentcolor"/>
</svg>
