<svg width="20" height="20" viewBox="0 0 20 20" fill="none" xmlns="http://www.w3.org/2000/svg">
<path fill-rule="evenodd" clip-rule="evenodd" d="M10 20C15.5229 20 20 15.5229 20 10C20 4.47714 15.5229 0 10 0C4.47714 0 0 4.47714 0 10C0 15.5229 4.47714 20 10 20ZM16.2627 7.87556L8.84331 15.2949C8.59133 15.5469 8.18286 15.5469 7.93089 15.2949L3.73734 11.1013C3.4854 10.8494 3.4854 10.4409 3.73734 10.189L4.64972 9.27657C4.90169 9.02464 5.3102 9.02464 5.56214 9.27657L8.3871 12.1015L14.4379 6.05081C14.6898 5.79883 15.0983 5.79883 15.3503 6.05081L16.2627 6.96319C16.5146 7.21512 16.5146 7.62363 16.2627 7.87556Z" fill="currentcolor"/>
</svg>
