<svg width="20" height="20" viewBox="0 0 20 20" fill="none" xmlns="http://www.w3.org/2000/svg">
<path fill-rule="evenodd" clip-rule="evenodd" d="M0.9375 1H8.4375C8.95527 1 9.375 1.41973 9.375 1.9375V8.1875C9.375 8.70527 8.95527 9.125 8.4375 9.125H0.9375C0.419727 9.125 0 8.70527 0 8.1875V1.9375C0 1.41973 0.419727 1 0.9375 1ZM19.0625 1H11.5625C11.0447 1 10.625 1.41973 10.625 1.9375V8.1875C10.625 8.70527 11.0447 9.125 11.5625 9.125H19.0625C19.5803 9.125 20 8.70527 20 8.1875V1.9375C20 1.41973 19.5803 1 19.0625 1ZM0 11.3125V17.5625C0 18.0803 0.419727 18.5 0.9375 18.5H8.4375C8.95527 18.5 9.375 18.0803 9.375 17.5625V11.3125C9.375 10.7947 8.95527 10.375 8.4375 10.375H0.9375C0.419727 10.375 0 10.7947 0 11.3125ZM19.0625 18.5H11.5625C11.0447 18.5 10.625 18.0803 10.625 17.5625V11.3125C10.625 10.7947 11.0447 10.375 11.5625 10.375H19.0625C19.5803 10.375 20 10.7947 20 11.3125V17.5625C20 18.0803 19.5803 18.5 19.0625 18.5Z" fill="currentcolor"/>
</svg>
