<svg width="20" height="20" viewBox="0 0 20 20" fill="none" xmlns="http://www.w3.org/2000/svg">
<path fill-rule="evenodd" clip-rule="evenodd" d="M0 2C0 1.44772 0.447715 1 1 1H19C19.5523 1 20 1.44772 20 2V5C20 5.55228 19.5523 6 19 6H1C0.447715 6 0 5.55228 0 5V2ZM0 14.5C0 13.9477 0.447715 13.5 1 13.5H19C19.5523 13.5 20 13.9477 20 14.5V17.5C20 18.0523 19.5523 18.5 19 18.5H1C0.447715 18.5 0 18.0523 0 17.5V14.5ZM1 7.25C0.447715 7.25 0 7.69772 0 8.25V11.25C0 11.8023 0.447715 12.25 1 12.25H19C19.5523 12.25 20 11.8023 20 11.25V8.25C20 7.69772 19.5523 7.25 19 7.25H1Z" fill="currentcolor"/>
</svg>
