<svg width="20" height="20" viewBox="0 0 20 20" fill="none" xmlns="http://www.w3.org/2000/svg">
<path d="M5 7.12132L7.12132 5L15.6066 13.4853L13.4853 15.6066L5 7.12132Z" fill="#333333"/>
<path fill-rule="evenodd" clip-rule="evenodd" d="M5.76812 5.64677C5.59645 5.78551 5.37793 5.8686 5.14001 5.8686C4.83452 5.8686 4.56102 5.73161 4.3776 5.51571L4.37381 5.5195L2.72079 3.86649C2.6945 3.86222 2.66752 3.86 2.64001 3.86C2.48568 3.86 2.34768 3.92992 2.25596 4.03982C2.18046 4.30305 2.14001 4.5811 2.14001 4.8686C2.14001 6.52545 3.48316 7.8686 5.14001 7.8686C5.93759 7.8686 6.66247 7.55736 7.19982 7.04971L7.19509 7.04497C7.6945 6.50914 8.00005 5.79026 8.00005 5C8.00005 3.34315 6.65691 2 5.00005 2C4.71256 2 4.4345 2.04044 4.17128 2.11594C4.06138 2.20766 3.99146 2.34566 3.99146 2.5C3.99146 2.5275 3.99368 2.55448 3.99795 2.58078L5.65096 4.23379L5.64717 4.23758C5.86307 4.42101 6.00005 4.69451 6.00005 5C6.00005 5.24526 5.91176 5.4699 5.76522 5.64387L5.76812 5.64677ZM15.2319 15.2218C15.4036 15.0831 15.6221 15 15.86 15C16.1655 15 16.439 15.137 16.6224 15.3529L16.6262 15.3491L18.2792 17.0021C18.3055 17.0064 18.3325 17.0086 18.36 17.0086C18.5143 17.0086 18.6523 16.9387 18.744 16.8288C18.8195 16.5655 18.86 16.2875 18.86 16C18.86 14.3431 17.5168 13 15.86 13C15.0624 13 14.3375 13.3112 13.8002 13.8189L13.8049 13.8236C13.3055 14.3595 12.9999 15.0783 12.9999 15.8686C12.9999 17.5255 14.3431 18.8686 15.9999 18.8686C16.2874 18.8686 16.5655 18.8282 16.8287 18.7527C16.9386 18.6609 17.0085 18.5229 17.0085 18.3686C17.0085 18.3411 17.0063 18.3141 17.0021 18.2878L15.349 16.6348L15.3528 16.631C15.1369 16.4476 14.9999 16.1741 14.9999 15.8686C14.9999 15.6233 15.0882 15.3987 15.2348 15.2247L15.2319 15.2218ZM9.82127 13.3213L7.69995 11.2L2.7502 16.1497C2.35968 16.5403 2.35968 17.1734 2.7502 17.564L3.45731 18.2711C3.84783 18.6616 4.481 18.6616 4.87152 18.2711L9.82127 13.3213ZM15.3849 4.32747L11.5531 8.15928L12.9673 9.57349L16.7991 5.74169L16.9614 5.904C17.1853 6.12787 17.5582 6.08994 17.7324 5.82557L18.8559 4.12066C18.9865 3.92248 18.9598 3.6598 18.792 3.49198L17.6243 2.32432C17.4565 2.1565 17.1938 2.12978 16.9957 2.26037L15.2908 3.38389C15.0264 3.55811 14.9884 3.93106 15.2123 4.15494L15.3849 4.32747Z" fill="#333333"/>
</svg>
