<svg width="20" height="20" viewBox="0 0 20 20" fill="none" xmlns="http://www.w3.org/2000/svg">
<path fill-rule="evenodd" clip-rule="evenodd" d="M2 2.1875V3.28125C2 3.53906 2.21094 3.75 2.46875 3.75H19.0312C19.2891 3.75 19.5 3.53906 19.5 3.28125V2.1875C19.5 1.66797 19.082 1.25 18.5625 1.25H14.1875L13.8203 0.519531C13.6602 0.199219 13.3359 0 12.9805 0H8.51562C8.16016 0 7.83594 0.199219 7.67969 0.519531L7.3125 1.25H2.9375C2.41797 1.25 2 1.66797 2 2.1875ZM17.4219 18.2422L18.2188 5.49609C18.2344 5.22656 18.0195 5 17.7539 5H3.75C3.48047 5 3.26562 5.22656 3.28125 5.49609L4.07812 18.2422C4.14062 19.2305 4.96094 20 5.94922 20H15.5508C16.5391 20 17.3594 19.2305 17.4219 18.2422Z" fill="currentcolor"/>
</svg>
