<svg width="20" height="20" viewBox="0 0 20 20" fill="none" xmlns="http://www.w3.org/2000/svg">
<path fill-rule="evenodd" clip-rule="evenodd" d="M3.64301 9.25187C3.64301 13.167 6.17949 15.1656 9.76031 15.1656C13.3229 15.1656 15.8573 13.1349 15.8573 9.25187V2.5H16.9624C17.3076 2.5 17.5874 2.2202 17.5874 1.875V0.625C17.5874 0.279805 17.3076 0 16.9624 0H11.616C11.2708 0 10.991 0.279805 10.991 0.625V1.875C10.991 2.2202 11.2708 2.5 11.616 2.5H12.7211V9.23152C12.7211 11.3616 11.5949 12.3552 9.76031 12.3552C7.8852 12.3552 6.77918 11.3495 6.77918 9.25187V2.5H7.90469C8.24988 2.5 8.52969 2.2202 8.52969 1.875V0.625C8.52969 0.279805 8.24988 0 7.90469 0H2.53789C2.1927 0 1.91289 0.279805 1.91289 0.625V1.875C1.91289 2.2202 2.1927 2.5 2.53789 2.5H3.64301V9.25187ZM17.875 17.5H1.625C1.2798 17.5 1 17.7798 1 18.125V19.375C1 19.7202 1.2798 20 1.625 20H17.875C18.2202 20 18.5 19.7202 18.5 19.375V18.125C18.5 17.7798 18.2202 17.5 17.875 17.5Z" fill="currentcolor"/>
</svg>
