<svg width="20" height="20" viewBox="0 0 20 20" fill="none" xmlns="http://www.w3.org/2000/svg">
<path d="M9.98234 0.375016C7.41041 0.379634 5.07522 1.39313 3.35118 3.04071L1.9651 1.65464C1.37829 1.06782 0.375 1.4834 0.375 2.31325V7.51614C0.375 8.03058 0.792019 8.4476 1.30645 8.4476H6.50935C7.33919 8.4476 7.75477 7.44431 7.168 6.85749L5.54766 5.23715C6.74551 4.11557 8.29548 3.49429 9.94217 3.48009C13.5282 3.44912 16.5509 6.35117 16.5199 10.0562C16.4905 13.5709 13.641 16.5202 10 16.5202C8.40384 16.5202 6.89528 15.9505 5.7064 14.9074C5.52232 14.7459 5.24432 14.7557 5.07115 14.9288L3.53184 16.4681C3.34276 16.6572 3.35211 16.9655 3.55055 17.1447C5.25728 18.6863 7.519 19.625 10 19.625C15.3157 19.625 19.625 15.3158 19.625 10.0001C19.625 4.69047 15.292 0.365507 9.98234 0.375016Z" fill="currentcolor"/>
</svg>
