<svg width="20" height="20" viewBox="0 0 20 20" fill="none" xmlns="http://www.w3.org/2000/svg">
<path fill-rule="evenodd" clip-rule="evenodd" d="M8.4375 14.9971H11.5625C12.082 14.9971 12.5 14.5791 12.5 14.0596V7.49707H15.9258C16.6211 7.49707 16.9688 6.65723 16.4766 6.16504L10.5312 0.219727C10.2383 -0.0732422 9.75781 -0.0732422 9.46484 0.219727L3.52344 6.16504C3.03125 6.65723 3.37891 7.49707 4.07422 7.49707H7.5V14.0596C7.5 14.5791 7.91797 14.9971 8.4375 14.9971ZM20 19.0596V14.6846C20 14.165 19.582 13.7471 19.0625 13.7471H13.75V14.0596C13.75 15.2666 12.7695 16.2471 11.5625 16.2471H8.4375C7.23047 16.2471 6.25 15.2666 6.25 14.0596V13.7471H0.9375C0.417969 13.7471 0 14.165 0 14.6846V19.0596C0 19.5791 0.417969 19.9971 0.9375 19.9971H19.0625C19.582 19.9971 20 19.5791 20 19.0596ZM15.1562 18.1221C15.1562 17.6924 14.8047 17.3408 14.375 17.3408C13.9453 17.3408 13.5938 17.6924 13.5938 18.1221C13.5938 18.5518 13.9453 18.9033 14.375 18.9033C14.8047 18.9033 15.1562 18.5518 15.1562 18.1221ZM16.875 17.3408C17.3047 17.3408 17.6562 17.6924 17.6562 18.1221C17.6562 18.5518 17.3047 18.9033 16.875 18.9033C16.4453 18.9033 16.0938 18.5518 16.0938 18.1221C16.0938 17.6924 16.4453 17.3408 16.875 17.3408Z" fill="currentcolor"/>
</svg>
