<svg width="20" height="20" viewBox="0 0 20 20" fill="none" xmlns="http://www.w3.org/2000/svg">
<path fill-rule="evenodd" clip-rule="evenodd" d="M10 3C8.27413 3 6.875 4.45739 6.875 6.25521C6.875 8.05303 8.27413 9.51042 10 9.51042C11.7259 9.51042 13.125 8.05303 13.125 6.25521C13.125 4.45739 11.7259 3 10 3ZM4 5.08333C2.61928 5.08333 1.5 6.24925 1.5 7.6875C1.5 9.12575 2.61928 10.2917 4 10.2917C5.38072 10.2917 6.5 9.12575 6.5 7.6875C6.5 6.24925 5.38072 5.08333 4 5.08333ZM13.5 7.6875C13.5 6.24925 14.6193 5.08333 16 5.08333C17.3807 5.08333 18.5 6.24925 18.5 7.6875C18.5 9.12575 17.3807 10.2917 16 10.2917C14.6193 10.2917 13.5 9.12575 13.5 7.6875ZM15 12.4401C15 11.1816 14.0206 10.1615 12.8125 10.1615H12.2548C10.8681 11.0304 9.13163 11.0302 7.74525 10.1615H7.1875C5.97937 10.1615 5 11.1816 5 12.4401V14.7188C5 15.1502 5.33578 15.5 5.75 15.5H14.25C14.6642 15.5 15 15.1502 15 14.7188V12.4401ZM4 12.4401C4 12.0503 4.06503 11.676 4.18403 11.3283C3.49872 11.3658 2.80522 11.1941 2.19619 10.8125H1.75C0.7835 10.8125 0 11.6286 0 12.6354V13.6771C0 14.1086 0.335781 14.4583 0.75 14.4583H4V12.4401ZM17.8038 10.8125H18.25C19.2165 10.8125 20 11.6286 20 12.6354V13.6771C20 14.1086 19.6642 14.4583 19.25 14.4583H16V12.4401C16.0003 12.0612 15.938 11.6851 15.816 11.3283C16.5011 11.3658 17.1946 11.1942 17.8038 10.8125Z" fill="currentcolor"/>
</svg>
