<svg width="20" height="20" viewBox="0 0 20 20" fill="none" xmlns="http://www.w3.org/2000/svg">
<path fill-rule="evenodd" clip-rule="evenodd" d="M10 0C6.54824 0 3.75 2.7982 3.75 6.25C3.75 9.7018 6.54824 12.5 10 12.5C13.4518 12.5 16.25 9.7018 16.25 6.25C16.25 2.7982 13.4518 0 10 0ZM14.5095 13.75H15.625C18.0413 13.75 20 15.7087 20 18.125V19.0625C20 19.5803 19.5803 20 19.0625 20H0.9375C0.419727 20 0 19.5803 0 19.0625V18.125C0 15.7087 1.95875 13.75 4.375 13.75H5.49047C8.26297 15.4178 11.7359 15.4185 14.5095 13.75Z" fill="currentcolor"/>
</svg>
