<svg width="20" height="20" viewBox="0 0 20 20" fill="none" xmlns="http://www.w3.org/2000/svg">
<path fill-rule="evenodd" clip-rule="evenodd" d="M19.7749 16.2782C20.4158 17.3891 19.6113 18.7778 18.3313 18.7778H1.66855C0.386017 18.7778 -0.414747 17.387 0.224906 16.2782L8.55636 1.83281C9.19758 0.721389 10.8036 0.723403 11.4437 1.83281L19.7749 16.2782ZM10 13.2917C9.11789 13.2917 8.40279 14.0068 8.40279 14.8889C8.40279 15.771 9.11789 16.4861 10 16.4861C10.8821 16.4861 11.5972 15.771 11.5972 14.8889C11.5972 14.0068 10.8821 13.2917 10 13.2917ZM8.74116 12.2727L8.48359 7.55049C8.47057 7.31181 8.66057 7.11111 8.89959 7.11111H11.1004C11.3394 7.11111 11.5295 7.31181 11.5164 7.55049L11.2589 12.2727C11.2468 12.4937 11.0641 12.6667 10.8428 12.6667H9.1572C8.93591 12.6667 8.7532 12.4937 8.74116 12.2727Z" fill="currentcolor"/>
</svg>
