<svg width="20" height="20" viewBox="0 0 20 20" fill="none" xmlns="http://www.w3.org/2000/svg">
<path d="M11.1146 10H9.55212V13.5C9.55212 14.1892 10.1362 14.75 10.8542 14.75H12.4167V16.25C12.4167 16.6642 12.7665 17 13.198 17H17.8855C18.3169 17 18.6667 16.6642 18.6667 16.25V11.75C18.6667 11.3358 18.3169 11 17.8855 11H13.198C12.7665 11 12.4167 11.3358 12.4167 11.75V13.25H11.1146V10Z" fill="#333333"/>
<path d="M9.33337 3.25H8.25V1.75C8.25 1.33578 7.90023 1 7.46875 1H2.78125C2.34977 1 2 1.33578 2 1.75V6.25C2 6.66422 2.34977 7 2.78125 7H7.46875C7.90023 7 8.25 6.66422 8.25 6.25V4.75H9.55208V8H11.1146V4.75H12.4167V6.25C12.4167 6.66422 12.7664 7 13.1979 7H17.8854C18.3169 7 18.6667 6.66422 18.6667 6.25V1.75C18.6667 1.33578 18.3169 1 17.8854 1H13.1979C12.7664 1 12.4167 1.33578 12.4167 1.75V3.25H11.3334V3.26667H9.33337V3.25Z" fill="#333333"/>
<path d="M9.55212 10L9.55208 8H11.1V10H9.55212Z" fill="#333333"/>
</svg>
